<?xml version="1.0" standalone="no"?>
<!DOCTYPE svg PUBLIC "-//W3C//DTD SVG 1.1//EN" "http://www.w3.org/Graphics/SVG/1.1/DTD/svg11.dtd" >
<svg xmlns="http://www.w3.org/2000/svg">
<metadata>
This is a custom SVG webfont generated by Fontspring.
</metadata>
<defs>
<font id="EratoLight" horiz-adv-x="1075" >
<font-face units-per-em="2048" ascent="1546" descent="-502" />
<missing-glyph horiz-adv-x="464" />
<glyph unicode=" "  horiz-adv-x="464" />
<glyph unicode="&#x09;" horiz-adv-x="464" />
<glyph unicode="&#xa0;" horiz-adv-x="464" />
<glyph unicode="!" horiz-adv-x="583" d="M209 102.5q0 51.5 33.5 84t83 32.5t81 -33.5t31.5 -85.5q0 -49 -32.5 -82.5t-81.5 -33.5q-47 0 -81 33.5t-34 85zM229 1483h199q0 -186 -74 -1063h-59q-66 782 -66 1063z" />
<glyph unicode="&#x22;" horiz-adv-x="618" d="M74 1524h162q0 -84 -56 -547h-57q-49 412 -49 547zM383 1524h162q0 -84 -56 -547h-57q-49 412 -49 547z" />
<glyph unicode="#" horiz-adv-x="1159" d="M84 444v131h252l55 259h-211v131h238l90 419h88l-90 -419h260l90 419h88l-90 -419h221v-131h-250l-55 -259h209v-131h-236l-100 -469h-86l98 469h-260l-100 -469h-86l98 469h-223zM422 575h262l55 259h-262z" />
<glyph unicode="$" horiz-adv-x="1032" d="M55 158l113 116q51 -74 135 -124t186 -60v524q-195 111 -266 199t-71 215q0 123 92 219t245 117v186h86v-180q197 -4 322 -94l-96 -131q-84 98 -226 123v-502q123 -72 198 -131.5t106.5 -110.5t40 -84.5t8.5 -87.5q0 -135 -100.5 -234.5t-252.5 -117.5v-184h-86v178 q-278 6 -434 164zM291 1073q0 -133 198 -258v459q-198 -11 -198 -201zM575 88q119 10 166 69.5t47 137.5q0 72 -39.5 130t-173.5 140v-477z" />
<glyph unicode="%" horiz-adv-x="1624" d="M59 954q0 188 89.5 311.5t230.5 123.5q145 0 228 -117t83 -297q0 -201 -85 -326t-234 -125q-135 0 -223.5 117.5t-88.5 312.5zM190 977q0 -383 189 -383q182 0 182 344q0 186 -49 283.5t-135 97.5q-88 0 -137.5 -85t-49.5 -257zM483 -4l547 1374h105l-549 -1374h-103z M934 410q0 188 89 311t230 123q145 0 228.5 -117t83.5 -297q0 -201 -85 -325.5t-235 -124.5q-135 0 -223 117.5t-88 312.5zM1065 432q0 -383 188 -383q182 0 183 344q0 186 -49.5 283.5t-135.5 97.5q-88 0 -137 -85t-49 -257z" />
<glyph unicode="&#x26;" horiz-adv-x="1613" d="M72 373q0 88 26.5 155.5t85 120.5t114.5 87t153 81q-147 160 -148 307q0 125 91 215t245 90q137 0 217 -70.5t80 -193.5q0 -63 -25.5 -116.5t-75 -95.5t-87 -66.5t-97.5 -55.5l400 -440q117 158 180 342q20 61 20 103q0 70 -157 75v66q184 -6 249 -6q51 0 218 6v-66 q-119 -10 -152 -55q-18 -29 -66 -125q-123 -258 -237 -407q131 -154 194.5 -200t135.5 -46q68 0 143 49l35 -43q-133 -127 -268 -127q-145 0 -342 242q-47 -49 -82 -79t-97.5 -71t-141.5 -61.5t-173 -20.5q-68 0 -140.5 23.5t-141 69.5t-112.5 128.5t-44 184.5zM229 393 q0 -131 97.5 -217t251.5 -86q203 0 370 176l-444 492q-141 -78 -208 -154t-67 -211zM449 1161q0 -72 31.5 -128t115.5 -148q121 63 168 126.5t47 149.5q0 76 -45 130.5t-135 54.5q-80 0 -131 -49.5t-51 -135.5z" />
<glyph unicode="'" horiz-adv-x="309" d="M74 1524h162q0 -84 -56 -547h-57q-49 412 -49 547z" />
<glyph unicode="(" horiz-adv-x="622" d="M115 598q0 279 116.5 543t333.5 444l47 -45q-182 -219 -262 -432t-80 -510q0 -532 342 -936l-43 -47q-209 170 -331.5 434t-122.5 549z" />
<glyph unicode=")" horiz-adv-x="622" d="M10 -340q182 219 262 432t80 510q0 532 -342 936l43 47q209 -170 332 -434t123 -549q0 -279 -117 -543t-334 -444z" />
<glyph unicode="*" horiz-adv-x="894" d="M66 1171l40 127q86 -29 310 -137q-35 225 -37 334h135q0 -131 -31 -334q176 90 308 137l38 -129q-61 -20 -331 -73q129 -106 233 -252l-117 -76q-88 121 -170 293q-104 -207 -168 -293l-114 78q70 100 231 252q-216 36 -327 73z" />
<glyph unicode="+" horiz-adv-x="1497" d="M193 571v117h493v496h125v-496h494v-117h-494v-497h-123v497h-495z" />
<glyph unicode="," horiz-adv-x="479" d="M88 -406q147 150 148 291q0 80 -109 185l137 114q117 -121 117 -237q0 -188 -240 -400z" />
<glyph unicode="-" horiz-adv-x="636" d="M76 455v133h485v-133h-485z" />
<glyph unicode="." horiz-adv-x="479" d="M125 102.5q0 51.5 34 84t83 32.5t80.5 -33.5t31.5 -85.5q0 -49 -32.5 -82.5t-81.5 -33.5q-47 0 -81 33.5t-34 85z" />
<glyph unicode="/" horiz-adv-x="712" d="M51 -96l496 1581h115l-496 -1581h-115z" />
<glyph unicode="0" d="M82 678q0 338 131 526.5t332 188.5q207 0 327.5 -183.5t120.5 -531.5q0 -319 -124 -513t-334.5 -194t-331.5 192.5t-121 514.5zM254 682q0 -326 67.5 -477.5t215.5 -151.5q145 0 214.5 152.5t69.5 474.5q0 631 -276 631q-291 0 -291 -629z" />
<glyph unicode="1" d="M260 1208v70q180 23 356 121l27 -15q-8 -147 -8 -311v-827q0 -115 32.5 -141.5t188.5 -41.5v-65q-135 4 -293 4q-143 0 -299 -4v65q156 14 188.5 41t32.5 146v756q0 123 -12 155q-10 25 -52 35t-161 12z" />
<glyph unicode="2" d="M41 35q111 86 219 188q260 250 369.5 433.5t109.5 363.5q0 115 -54 185.5t-173 70.5q-201 0 -334 -227l-76 30q74 145 195 228.5t254 83.5q168 0 261 -93.5t93 -255.5q0 -98 -43 -205.5t-95 -188.5t-150.5 -187.5t-155.5 -161.5l-164 -152q451 0 678 11l-37 -160 q-324 4 -463 4q-197 0 -426 -4z" />
<glyph unicode="3" d="M137 1174q195 219 412 219q129 0 203.5 -72t74.5 -186q0 -205 -241 -336q150 0 241 -81t91 -233q0 -156 -121 -287.5t-291 -206.5t-346 -93l-17 122q109 0 213.5 24t197.5 72t150.5 132t57.5 194q0 131 -70.5 199t-189.5 68q-88 0 -207 -45l-33 69q188 66 227 88 q182 96 183 287q0 84 -49.5 130t-130.5 46q-139 0 -289 -158z" />
<glyph unicode="4" d="M59 430q356 518 695 954l71 -6q0 -8 -1 -156.5t-1 -353.5v-350h205v-135h-205v-428h-143v428q-381 0 -604 -2zM238 518h442v637q-28 -37 -442 -637z" />
<glyph unicode="5" d="M139 23q119 2 221.5 26.5t189.5 74.5t137 138t50 205q0 129 -102.5 210t-284.5 140q-70 23 -99.5 46.5t-29.5 58.5q0 23 12 71q49 182 93 369q479 0 585 8l-32 -149q-156 -6 -498 -7q-47 -176 -47 -200q0 -10 3 -17.5t13 -13.5l16 -9q5 -3 22.5 -9.5t21.5 -8.5 q276 -109 377.5 -198.5t101.5 -265.5q0 -221 -204 -384t-527 -208z" />
<glyph unicode="6" d="M106 524q0 205 95.5 395.5t273.5 336t410 208.5l18 -69q-283 -92 -458 -325.5t-175 -528.5q0 -225 84 -353.5t226 -128.5q115 0 190.5 82t75.5 217q0 129 -83 236.5t-214 107.5q-82 0 -162 -30l-20 51q160 70 276 70q147 0 249.5 -103.5t102.5 -271.5q0 -186 -126 -313.5 t-318 -127.5q-201 0 -323 147.5t-122 399.5z" />
<glyph unicode="7" d="M86 1208l41 158q188 -4 403 -4q326 0 480 2l18 -27l-668 -1417l-122 27q420 872 628 1267q-530 0 -780 -6z" />
<glyph unicode="8" d="M117 322q0 240 299 383q-133 80 -186.5 160.5t-53.5 185.5q0 152 109.5 247t277.5 95q162 0 259.5 -85t97.5 -227q0 -205 -261 -336q143 -88 219 -175t76 -220q0 -158 -119.5 -266.5t-308.5 -108.5q-186 0 -297.5 94.5t-111.5 252.5zM248 338q0 -131 82 -207t213 -76 q115 0 193.5 71t78.5 179q0 119 -82 196t-258 167q-98 -51 -162.5 -137.5t-64.5 -192.5zM309 1094q0 -102 78 -175t207 -141q84 47 140.5 123t56.5 170q0 109 -71 176.5t-175 67.5q-102 0 -169 -60.5t-67 -160.5z" />
<glyph unicode="9" d="M74 952q0 186 127 313.5t319 127.5q201 0 319.5 -146.5t118.5 -400.5q0 -317 -206.5 -582.5t-554.5 -357.5l-25 69q281 94 452 325.5t171 528.5q0 225 -80 353.5t-215 128.5q-117 0 -197 -83t-80 -218.5t78 -236.5t221 -101q86 0 162 30l21 -53q-154 -72 -277 -71 q-150 0 -252 103t-102 271z" />
<glyph unicode=":" horiz-adv-x="516" d="M162 102.5q0 51.5 33.5 84t83 32.5t81 -33.5t31.5 -85.5q0 -49 -32.5 -82.5t-82.5 -33.5q-47 0 -80.5 33.5t-33.5 85zM162 864q0 51 33.5 84t83 33t81 -34t31.5 -85q0 -49 -32.5 -83t-82.5 -34q-47 0 -80.5 34t-33.5 85z" />
<glyph unicode=";" horiz-adv-x="516" d="M125 -406q147 150 147 291q0 80 -108 185l137 114q117 -121 117 -237q0 -188 -240 -400zM162 864q0 51 33.5 84t83 33t81 -34t31.5 -85q0 -49 -32.5 -83t-82.5 -34q-47 0 -80.5 34t-33.5 85z" />
<glyph unicode="&#x3c;" horiz-adv-x="1497" d="M227 557v141l981 480v-138l-858 -409l858 -404v-139z" />
<glyph unicode="=" horiz-adv-x="1497" d="M195 377v117h1108v-117h-1108zM195 756v118h1108v-118h-1108z" />
<glyph unicode="&#x3e;" horiz-adv-x="1497" d="M287 86v137l858 410l-858 403v140l981 -469v-142z" />
<glyph unicode="?" horiz-adv-x="761" d="M160 1329v154q233 -14 375 -133q164 -139 163 -353q0 -115 -65.5 -190.5t-208.5 -126.5q-59 -20 -68 -90q-2 -18 -10 -170h-65q-14 240 -15 291q0 90 90 118q117 39 169.5 83t52.5 149q0 127 -93.5 197.5t-324.5 70.5zM203 102.5q0 51.5 33.5 84t83 32.5t81 -33.5 t31.5 -85.5q0 -49 -32.5 -82.5t-82.5 -33.5q-47 0 -80.5 33.5t-33.5 85z" />
<glyph unicode="@" horiz-adv-x="1720" d="M117 479q0 178 66.5 346t181 295t281.5 204t353 77q178 0 309.5 -56.5t198 -145.5t96 -176t29.5 -173q0 -213 -101 -379t-282 -266q-109 -61 -202 -62q-61 0 -62 62q0 74 74 309l-6 4q-123 -178 -258.5 -277.5t-229.5 -99.5q-113 0 -112 133q0 96 51 229.5t143 250.5 q211 268 434 268q53 0 131 -12l33 65l86 -6l-178 -600q-37 -121 -37 -188q0 -31 27 -31q37 0 80 26q137 84 212.5 241t75.5 337q0 207 -140 333t-378 126q-322 0 -524.5 -237.5t-202.5 -604.5q0 -283 168 -450.5t453 -167.5q401 0 674 260l61 -64q-317 -303 -750 -303 q-352 0 -553.5 195.5t-201.5 537.5zM610 340q0 -70 56 -70q84 0 211 135.5t206 290.5q59 115 60 183q0 29 -38 44t-89 15q-104 0 -211 -141q-74 -100 -134.5 -236.5t-60.5 -220.5z" />
<glyph unicode="A" horiz-adv-x="1441" d="M8 -2v65q90 12 133 42t82 131l307 794q92 242 144 404l123 39q27 -90 135 -406l280 -815q37 -111 76 -145.5t135 -43.5v-65q-178 6 -272 6q-80 0 -252 -6v65q115 4 145.5 18.5t30.5 53.5t-37 146l-94 282h-485l-103 -284q-37 -96 -37 -142q0 -35 31 -50t144 -24v-65 q-150 6 -234 6q-92 0 -252 -6zM489 647h426l-204 606z" />
<glyph unicode="B" horiz-adv-x="1282" d="M102 -2v65q135 10 158 48q18 31 19 139v952q0 102 -19 133q-25 41 -156 47v66q168 -4 240 -4q57 0 143 1t115 1q256 0 376 -81t120 -243q0 -121 -78 -213t-221 -135q170 -20 273.5 -109.5t103.5 -236.5q0 -213 -156 -321.5t-414 -108.5q-47 0 -135 2t-121 2 q-142 0 -248 -4zM432 311q0 -133 17 -166q31 -63 223 -63q170 0 248.5 72.5t78.5 220.5q0 106 -33.5 177t-98 106.5t-137.5 49t-175 13.5q-76 0 -123 -2v-408zM432 797q14 -2 66 -2q229 0 330.5 74.5t101.5 226.5q0 276 -342 276q-76 0 -156 -6v-569z" />
<glyph unicode="C" horiz-adv-x="1529" d="M119 727q0 326 215 536t555 210q180 0 362 -48q57 -14 119 -34q18 -217 33 -324l-78 -8q-43 178 -137 251.5t-297 73.5q-276 0 -437 -173t-161 -470q0 -311 169 -496.5t464 -185.5q168 0 270 73t150 261l77 -12q-41 -227 -80 -326q-68 -37 -195.5 -60.5t-246.5 -23.5 q-362 0 -572 212t-210 544z" />
<glyph unicode="D" horiz-adv-x="1601" d="M102 -2v65q137 8 158 48q18 37 19 129v966q0 92 -19 129q-20 39 -158 47v66q123 -4 244 -4q23 0 155 2t175 2q406 0 606.5 -186.5t200.5 -513.5q0 -379 -231.5 -563.5t-624.5 -184.5q-45 0 -149.5 2t-131.5 2q-60 0 -244 -6zM432 1360v-1067q0 -109 17 -141 q31 -63 247 -64q274 0 442.5 162t168.5 473q0 145 -32 256t-107.5 201t-213 137t-333.5 47q-134 0 -189 -4z" />
<glyph unicode="E" horiz-adv-x="1224" d="M102 -2v65q137 8 158 48q18 37 19 129v966q0 92 -19 129q-20 39 -158 47v66q184 -6 306 -6q381 0 639 6q12 -215 24 -299l-70 -8q-31 137 -90 186q-33 27 -75.5 36t-145.5 9q-199 0 -258 -4v-573q236 0 285 18q61 23 88 172h67q-10 -215 -10 -248q0 -131 4 -213h-67 q-18 141 -80 170q-51 25 -287 25v-465q0 -80 17 -109q37 -68 292 -67q199 0 269 96q45 63 88 170l65 -16q-37 -154 -92 -330q-504 6 -655 6q-130 0 -314 -6z" />
<glyph unicode="F" horiz-adv-x="1181" d="M102 -2v68q137 8 158 47q18 37 19 129v964q0 92 -19 129q-20 39 -158 47v66q184 -6 306 -6q379 0 636 6q12 -211 27 -311l-70 -9q-33 143 -94 199q-31 27 -72.5 36t-146.5 9q-197 0 -256 -4v-584q244 0 293 19q61 23 88 172h68q-10 -215 -11 -248q0 -137 4 -219h-67 q-20 147 -80 176q-51 25 -295 25v-457q0 -104 21 -137q23 -37 184 -49v-68q-172 6 -293 6q-58 0 -242 -6z" />
<glyph unicode="G" horiz-adv-x="1607" d="M119 727q0 326 215 536t555 210q190 0 360 -48q68 -18 121 -39q18 -203 33 -319l-78 -8q-43 180 -136 252.5t-298 72.5q-276 0 -437 -173t-161 -470q0 -309 172 -495.5t467 -186.5q283 0 305 125q8 45 8 199q0 90 -41 115.5t-162 36.5v65q147 -4 269 -4q111 0 241 4v-65 q-109 -10 -135 -36t-26 -130q0 -209 16 -299q-285 -98 -506 -99q-362 0 -572 212t-210 544z" />
<glyph unicode="H" horiz-adv-x="1652" d="M102 -2v65q137 8 158 48q18 37 19 129v964q0 94 -19 131q-20 39 -158 47v66q184 -6 248 -6q92 0 258 6v-66q-133 -10 -155 -43q-20 -29 -21 -139v-393h789v397q0 94 -19 131q-20 39 -158 47v66q184 -6 248 -6q92 0 258 6v-66q-133 -10 -155 -43q-20 -29 -21 -139v-956 q0 -109 21 -138q23 -33 155 -43v-65q-166 6 -258 6q-63 0 -248 -6v65q137 8 158 48q18 37 19 129v481h-789v-477q0 -109 21 -138q23 -33 155 -43v-65q-166 6 -258 6q-64 0 -248 -6z" />
<glyph unicode="I" horiz-adv-x="712" d="M102 -2v65q137 8 158 48q18 37 19 129v964q0 94 -19 131q-20 39 -158 47v66q184 -6 250 -6q92 0 258 6v-66q-133 -10 -155 -43q-20 -29 -21 -139v-956q0 -109 21 -138q23 -33 155 -43v-65q-166 6 -258 6q-66 0 -250 -6z" />
<glyph unicode="J" horiz-adv-x="700" d="M-106 -326l49 136q88 -47 174 -48q45 0 72.5 10.5t58.5 46.5t46 118.5t15 212.5v1056q0 92 -18 129q-20 39 -170 47v66q96 -6 260 -6q92 0 258 6v-66q-133 -10 -156 -43q-20 -29 -20 -137v-751q0 -49 1 -163t1 -161q0 -203 -136 -346t-268 -143q-75 -1 -167 36z" />
<glyph unicode="K" horiz-adv-x="1386" d="M102 -2v65q137 8 158 48q18 37 19 129v966q0 92 -19 129q-20 39 -158 47v66q184 -6 248 -6q92 0 258 6v-66q-133 -10 -155 -43q-20 -29 -21 -137v-418q61 4 98 29q72 49 371 393q80 92 80 129q0 43 -135 47v66q51 -6 254 -6q121 0 239 6v-66q-88 -10 -143 -37.5 t-137 -113.5l-436 -447l514 -561q90 -96 139 -125.5t131 -34.5v-65q-160 6 -233 6q-207 0 -308 -6v65q82 4 113 12.5t31 28.5q0 33 -88 129l-340 377q-63 70 -89 88.5t-61 18.5v-473q0 -109 21 -138q23 -33 155 -43v-65q-160 6 -258 6q-64 0 -248 -6z" />
<glyph unicode="L" horiz-adv-x="1224" d="M102 -2v65q137 8 158 48q18 37 19 129v966q0 92 -19 129q-20 39 -158 47v66q184 -6 248 -6q90 0 262 6v-66q-137 -10 -159 -43q-20 -29 -21 -137v-948q0 -80 17 -109q37 -68 301 -67q207 0 276 96q43 61 92 182l68 -16q-31 -139 -96 -342q-504 6 -609 6q-195 0 -379 -6z " />
<glyph unicode="M" horiz-adv-x="1875" d="M27 -2v65q106 4 149 38t51 143q70 920 70 1013q0 72 -43 93.5t-162 31.5v66q98 -4 182 -4q47 0 195 4q37 -139 104 -309l342 -871l428 967q33 72 74 213q98 -4 182 -4q39 0 187 4v-66q-117 -4 -155 -36.5t-38 -145.5q0 -156 31 -948q4 -119 35 -149.5t160 -39.5v-65 q-119 4 -271 4q-156 0 -278 -4v65q119 10 155.5 41t36.5 148q0 8 -20 971l-418 -947q-61 -143 -106 -284h-70q-41 137 -90 254l-373 950q-4 -113 -26.5 -471t-22.5 -487q0 -106 42 -137t171 -38v-65q-213 4 -283 4q-112 0 -239 -4z" />
<glyph unicode="N" horiz-adv-x="1642" d="M43 1382v66q82 -4 180 -4q74 0 148 4q39 -61 85 -124l73 -97q28 -35 106 -125t110 -131l566 -662q2 111 2 332q0 276 -6 502q-4 156 -42 194.5t-171 44.5v66q147 -4 262 -4q84 0 239 4v-66q-119 -6 -151.5 -45t-38.5 -194q-2 -80 -2 -402q0 -496 14 -753l-67 -13 q-80 119 -170 232l-803 956q-4 -141 -4 -413q0 -279 2 -420q2 -172 41 -216t178 -51v-65q-164 4 -266 4q-201 0 -254 -4v65q88 6 126 24.5t55 77t19 185.5l5 370l3 277q1 94 1 136q0 121 -41 174q-31 41 -70 55t-129 20z" />
<glyph unicode="O" horiz-adv-x="1689" d="M119 698q0 330 216 552.5t533 222.5q309 0 506 -209t197 -516q0 -336 -209 -556.5t-528 -220.5q-307 0 -511 206t-204 521zM295 739q0 -303 152.5 -491.5t416.5 -188.5q231 0 381 173.5t150 463.5q0 322 -162 505t-402 183q-231 0 -383.5 -178t-152.5 -467z" />
<glyph unicode="P" horiz-adv-x="1220" d="M102 -2v65q137 8 158 48q18 37 19 129v962q0 98 -23 135q-12 18 -34.5 27.5t-45 12.5t-74.5 5v66q82 -4 240 -4q31 0 126 1t118 1q541 0 540 -389q0 -203 -147.5 -311.5t-364.5 -108.5q-63 0 -112 6l10 76q31 -6 70 -6q174 0 273 70.5t99 258.5q0 154 -102 241t-303 87 q-72 0 -117 -4v-1122q0 -96 25 -131q29 -37 170 -50v-65q-172 6 -281 6q-60 0 -244 -6z" />
<glyph unicode="Q" horiz-adv-x="1689" d="M119 698q0 330 216 552.5t533 222.5q309 0 506 -209t197 -516q0 -301 -172 -514.5t-447 -253.5q293 -154 547 -254q172 -68 406 -68q109 0 247 35l21 -68q-182 -66 -410 -65q-127 0 -238.5 20.5t-245.5 76.5t-221 100t-270 145q-162 88 -225 118q-203 78 -323.5 258 t-120.5 420zM295 739q0 -303 152.5 -491.5t416.5 -188.5q231 0 381 173.5t150 463.5q0 322 -162 505t-402 183q-231 0 -383.5 -178t-152.5 -467z" />
<glyph unicode="R" horiz-adv-x="1384" d="M102 -2v65q137 8 158 48q18 37 19 129v962q0 115 -29 144q-29 31 -148 36v66q82 -4 240 -4q31 0 116 1t107 1q123 0 217.5 -18.5t173 -60.5t120.5 -121t42 -189q0 -123 -83 -222.5t-234 -146.5q154 -262 289 -426q84 -100 153.5 -153.5t147.5 -67.5l-7 -55 q-102 0 -205.5 30.5t-164.5 92.5q-121 119 -373 555h-55q-86 0 -154 6v-426q0 -109 21 -138q27 -37 157 -43v-65q-172 6 -264 6q-60 0 -244 -6zM432 748q70 -8 143 -9q180 0 275.5 82t95.5 230q0 168 -97 243.5t-308 75.5q-63 0 -109 -4v-618z" />
<glyph unicode="S" horiz-adv-x="1044" d="M90 350l74 8q39 -150 112.5 -225.5t217.5 -75.5q135 0 213.5 65.5t78.5 178.5q0 98 -44 161.5t-146 129.5l-188 121q-246 156 -246 379q0 166 123 272t325 106q145 0 267 -47q16 -176 34 -280l-71 -6q-33 133 -92.5 190t-180.5 57q-127 0 -198.5 -67.5t-71.5 -171.5 q0 -152 192 -277l179 -116q139 -88 201.5 -176.5t62.5 -196.5q0 -182 -123 -296t-328 -114q-102 0 -200.5 23.5t-139.5 58.5q-35 141 -51 299z" />
<glyph unicode="T" horiz-adv-x="1374" d="M33 1135q31 186 43 366h63q8 -27 25 -37q29 -23 520 -22q483 0 524 12q39 10 58 49l63 -6q-16 -137 -29 -369h-67q-6 94 -27.5 142.5t-75.5 68.5q-57 20 -266 21q-41 0 -106 -4v-1112q0 -104 22 -138q20 -31 189 -43v-65q-172 6 -293 6q-178 0 -277 -6v65q156 8 185 46 q20 31 20 131v1114q-37 4 -125 4q-86 0 -127 -1t-87 -11.5t-68 -30.5q-57 -51 -99 -191z" />
<glyph unicode="U" horiz-adv-x="1576" d="M43 1382v66q184 -6 248 -6q92 0 264 6v-66q-139 -10 -162 -43q-20 -29 -20 -137q-2 -170 -2 -602q0 -231 59 -334q109 -182 381 -182q123 0 208 30.5t131 77t70.5 129t30.5 155.5t6 190q0 377 -8 477q-12 152 -50 192.5t-163 46.5v66q147 -4 264 -4q86 0 242 4v-66 q-119 -6 -155.5 -49t-36.5 -198q0 -39 1 -285t1 -313q0 -567 -568 -568q-158 0 -286.5 56.5t-200.5 158.5q-78 111 -78 336v686q0 92 -18 129q-21 39 -158 47z" />
<glyph unicode="V" horiz-adv-x="1464" d="M14 1382v66q154 -6 262 -6q125 0 279 6v-66q-111 -4 -154 -19t-43 -58q0 -33 29 -113q94 -262 377 -975q285 729 356 938q33 94 33 150q0 41 -39 58t-143 19v66q117 -6 266 -6q123 0 203 6v-66q-72 -4 -101 -24q-23 -14 -37 -40t-42 -97q-365 -911 -488 -1244h-78 q-23 63 -504 1274q-31 74 -61 99q-43 32 -115 32z" />
<glyph unicode="W" horiz-adv-x="2103" d="M27 1382v66q154 -6 229 -6q170 0 264 6v-66q-92 -4 -121.5 -21.5t-29.5 -47.5q0 -39 32 -121l418 -987l213 487l-237 563q-27 63 -58 95q-31 33 -129 32v66q172 -6 221 -6q57 0 152.5 3t99.5 3v-66q-72 -2 -100.5 -15t-28.5 -54q0 -39 33 -121q61 -168 133 -342l139 324 q37 86 37 139q0 70 -131 69v66q78 -6 205 -6q113 0 205 6v-66q-70 -4 -98 -24q-43 -33 -97 -150l-217 -458l230 -547l378 973q35 92 35 137q0 33 -26.5 48t-118.5 21v66q82 -6 225 -6q88 0 199 6v-66q-61 -2 -94 -22q-31 -18 -54 -70l-540 -1313h-74q-68 186 -242 605 q-176 -395 -258 -605h-78q-215 535 -542 1278q-27 63 -58 95q-30 32 -116 32z" />
<glyph unicode="X" horiz-adv-x="1431" d="M4 -2v63q86 4 143.5 37t131.5 131q254 332 366 496l-342 494q-68 98 -112 127.5t-123 35.5v66q221 -6 256 -6q127 0 249 6v-66q-137 -4 -137 -53q0 -41 88 -168l217 -317q162 219 252 362q53 86 54 125q0 47 -142 51v66q129 -6 266 -6q102 0 205 6v-66q-74 -8 -130 -40.5 t-138 -141.5l-315 -430l364 -543q37 -55 72 -89t72.5 -50t60 -20.5t65.5 -8.5v-61q-135 6 -270 6q-39 0 -285 -6v63q152 6 152 54q0 29 -59 118l-267 412q-70 -92 -211 -297q-121 -174 -120 -225q0 -57 157 -62v-63q-166 6 -291 6q-14 0 -229 -6z" />
<glyph unicode="Y" horiz-adv-x="1316" d="M14 1382v66q98 -6 256 -6q141 0 258 6v-66q-90 -4 -121.5 -14t-31.5 -39q0 -33 45 -117l149 -275l125 -224l256 440q63 113 64 176q0 51 -148 53v66q74 -6 215 -6q94 0 230 6v-66q-66 -6 -112 -46t-122 -165l-340 -550v-377q0 -106 21 -135q27 -37 172 -46v-65 q-160 6 -273 6q-49 0 -264 -6v65q147 6 172 50q18 37 19 127v368l-348 611q-59 100 -100.5 128.5t-121.5 34.5z" />
<glyph unicode="Z" horiz-adv-x="1368" d="M70 31l960 1327q-115 4 -366 4q-178 0 -258 -18.5t-121 -61.5q-31 -35 -97 -166l-73 19q51 145 100 364h68q10 -29 25.5 -39t58.5 -12q80 -4 444 -4q260 0 420 6l18 -33l-930 -1311q96 -8 310 -8q250 0 334 6.5t133 32.5q45 25 79.5 77t77.5 146l76 -16l-108 -350 q-4 0 -91.5 3t-210 5t-217.5 2q-340 0 -616 -10z" />
<glyph unicode="[" horiz-adv-x="591" d="M193 -342v1878h378v-78h-239v-1722h235v-78h-374z" />
<glyph unicode="\" horiz-adv-x="712" d="M53 1485h111l495 -1581h-110z" />
<glyph unicode="]" horiz-adv-x="591" d="M20 -264h240v1722h-235v78h374v-1878h-379v78z" />
<glyph unicode="^" horiz-adv-x="1497" d="M264 604l418 842h135l416 -842h-137l-348 721l-349 -721h-135z" />
<glyph unicode="_" horiz-adv-x="1024" d="M-20 -301h1064v-121h-1064v121z" />
<glyph unicode="`" horiz-adv-x="604" d="M113 1475l176 49q72 -141 203 -375l-37 -23q-119 111 -342 349z" />
<glyph unicode="a" horiz-adv-x="1032" d="M113 223q0 104 77 158q51 37 129 62.5t261 70.5q59 14 75.5 31.5t16.5 72.5q0 176 -31 228q-45 74 -143 74q-88 0 -148.5 -35t-60.5 -84q0 -45 39 -107l-131 -67q-49 78 -50 123q0 63 86 133q80 63 171.5 99t156.5 36q152 0 215 -94q33 -51 33 -185q0 -39 -3 -183 t-3 -212q0 -141 21.5 -194.5t72.5 -53.5q39 0 88 31l31 -39q-117 -106 -197 -106q-86 0 -143 124q-160 -131 -283 -131q-119 0 -199.5 75t-80.5 173zM264 233q0 -61 49.5 -105t122.5 -44q123 0 193 57q29 23 36 43.5t7 67.5v215q-256 -57 -332 -103.5t-76 -130.5z" />
<glyph unicode="b" horiz-adv-x="1193" d="M90 1450v31l254 149l18 -12q-12 -221 -12 -463v-319q219 170 373 170q158 0 266.5 -135.5t108.5 -338.5q0 -231 -141.5 -395t-354.5 -164q-168 0 -295 64l-49 -70l-51 15q10 143 10 360v897q0 106 -27 139q-20 25 -100 72zM348 354q4 -135 35 -182q29 -43 102.5 -70.5 t153.5 -27.5q152 0 234.5 105.5t82.5 273.5q0 201 -89 316.5t-242 115.5q-80 0 -163 -45t-102 -90q-12 -29 -12 -113v-283z" />
<glyph unicode="c" horiz-adv-x="925" d="M96 440q0 268 161 422t361 154q150 0 259 -101l-109 -122q-111 104 -250 104q-121 0 -204 -101.5t-83 -277.5q0 -201 100.5 -310.5t244 -109.5t288.5 107l45 -49q-190 -190 -374 -191q-182 0 -310.5 131t-128.5 344z" />
<glyph unicode="d" horiz-adv-x="1220" d="M96 434q0 246 159 410t407 164q80 0 198 -35l-2 264q0 113 -27 141q-16 18 -100 72v31l254 149l19 -12q-12 -221 -13 -463v-897q0 -106 21 -133q16 -23 139 -23v-53l-279 -88l-16 12v148q-184 -150 -344 -150q-168 0 -292 131t-124 332zM240 494q0 -186 99 -295t247 -109 q76 0 141.5 28.5t99.5 71.5q31 37 31 148v311q0 59 -1 87t-10 57.5t-30 48.5q-80 74 -213 73q-164 0 -264 -118.5t-100 -302.5z" />
<glyph unicode="e" horiz-adv-x="993" d="M96 475q0 233 131 387t322 154q172 0 273.5 -102.5t101.5 -305.5l-686 -2q-6 -31 -7 -63q0 -225 107.5 -335t271.5 -110q135 0 285 109l43 -49q-86 -92 -195.5 -142.5t-201.5 -50.5q-193 0 -319 135t-126 375zM248 678q354 0 454 12q33 4 46.5 13.5t13.5 39.5 q0 80 -60.5 137.5t-169.5 57.5q-111 0 -189.5 -77t-94.5 -183z" />
<glyph unicode="f" horiz-adv-x="659" d="M92 -2v63q90 6 114.5 18.5t34 44.5t9.5 112v632h-141v54q82 20 116 79q29 47 39 144q14 135 57.5 223t131.5 160q117 98 243 98q121 0 209 -70l-92 -137q-102 84 -213 84q-92 0 -145 -73q-68 -96 -68 -316v-156h254v-90h-256v-624q0 -111 21 -140q27 -35 159 -43v-63 q-72 4 -233 4q-113 0 -240 -4z" />
<glyph unicode="g" horiz-adv-x="1048" d="M74 -250q0 53 47 112.5t182 160.5q-68 27 -109.5 77t-41.5 103l163 168q-176 100 -176 299q0 141 111.5 243.5t273.5 102.5q131 0 228 -78h272v-90h-197q41 -55 41 -168q0 -152 -102 -248t-264 -96q-23 0 -54.5 2t-39.5 2q-23 0 -43 -10q-29 -16 -47.5 -45t-18.5 -49 q0 -39 39 -74q45 -39 194 -39q172 0 245 -6t124 -31q113 -51 113 -184q0 -180 -158 -303t-381 -123q-176 0 -288.5 81.5t-112.5 192.5zM225 -219q0 -90 85 -149.5t225 -59.5q147 0 248.5 69.5t101.5 168.5q0 102 -85 147t-329 45q-92 0 -127 -22q-119 -78 -119 -199z M289 692q0 -135 63.5 -208.5t165.5 -73.5q96 0 150.5 64.5t54.5 174.5q0 143 -58.5 218t-158.5 75q-96 0 -156.5 -65.5t-60.5 -184.5z" />
<glyph unicode="h" horiz-adv-x="1236" d="M90 -2v63q119 6 139 43q18 37 19 129v1004q0 113 -27 141q-16 18 -100 72v31l254 149l18 -12q-12 -221 -12 -463v-313q242 168 387 168q125 0 188 -97q35 -51 44.5 -116.5t9.5 -204.5v-336q0 -129 18 -152q25 -33 143 -43v-63q-131 4 -227 4q-76 0 -227 -4v63 q106 10 135 41q29 33 29 297q0 299 -31 387q-39 102 -178 103q-66 0 -141.5 -29t-110.5 -65q-25 -27 -32 -61t-7 -111v-385q0 -109 20 -138q20 -31 144 -39v-63q-119 4 -232 4q-100 0 -223 -4z" />
<glyph unicode="i" horiz-adv-x="593" d="M90 -2v63q119 6 139 45q18 37 19 127v377q0 111 -19 158q-12 31 -110 90v27l250 139l18 -12q-6 -121 -6 -389v-385q0 -109 20 -138q20 -31 144 -39v-63q-119 4 -228 4q-104 0 -227 -4zM178 1386q0 49 32 80t77 31t75.5 -30.5t30.5 -80.5q0 -47 -29.5 -77.5t-76.5 -30.5 q-45 0 -77 30.5t-32 77.5z" />
<glyph unicode="j" horiz-adv-x="530" d="M8 -424q84 78 125 150q76 133 76 348v536q0 111 -19 158q-12 31 -110 90v27l250 139l18 -12q-6 -121 -6 -389q0 -68 2 -296.5t2 -232.5q0 -121 -14.5 -186.5t-50.5 -130.5q-66 -117 -222 -252zM139 1386q0 49 32 80t77 31t75.5 -30.5t30.5 -80.5q0 -47 -29.5 -77.5 t-76.5 -30.5q-45 0 -77 30.5t-32 77.5z" />
<glyph unicode="k" horiz-adv-x="1157" d="M90 -2v63q119 6 139 43q18 37 19 134v997q0 109 -27 143q-16 18 -100 72v31l254 149l18 -12q-12 -221 -12 -463v-606q74 10 123 53q59 51 172 166q61 63 61 111q0 39 -112 39v63q143 -4 239 -4q92 0 199 4v-63q-41 -4 -80 -17q-76 -25 -166 -108l-260 -236l389 -395 q47 -47 64 -60q49 -39 141 -41v-63q-131 4 -231 4q-84 0 -228 -4v63q94 2 94 37q0 31 -41 72l-239 250q-49 49 -70.5 64.5t-54.5 17.5v-260q0 -113 20.5 -141.5t143.5 -39.5v-63q-119 4 -232 4q-100 0 -223 -4z" />
<glyph unicode="l" horiz-adv-x="614" d="M90 -2v63q119 6 139 43q18 37 19 129v1010q0 102 -27 137q-12 14 -100 70v31l256 149l18 -12q-12 -221 -12 -463v-917q0 -109 20 -138q23 -33 144 -39v-63q-119 4 -232 4q-102 0 -225 -4z" />
<glyph unicode="m" horiz-adv-x="1826" d="M90 -2v63q119 6 139 43q18 37 19 129v381q0 106 -19 154q-12 31 -110 90v27l243 139l19 -12v-170q242 168 364 168q88 0 147.5 -50.5t82.5 -132.5q231 182 383 183q121 0 188 -103q33 -53 43 -118.5t10 -202.5v-330q0 -129 19 -152q25 -33 143 -43v-63q-131 4 -231 4 q-74 0 -225 -4v63q117 8 137 41q29 41 28 297q0 299 -30 387q-39 102 -170 103q-63 0 -133 -30t-107 -68q-25 -27 -32 -59t-7 -109v-367q0 -129 19 -152q25 -33 143 -43v-63q-131 4 -227 4q-78 0 -230 -4v63q117 8 138 41q29 41 28 297q0 299 -31 387q-39 102 -174 103 q-59 0 -130.5 -27.5t-106.5 -64.5q-25 -27 -32 -58.5t-7 -109.5v-391q0 -109 20 -138q20 -31 144 -39v-63q-119 4 -228 4q-104 0 -227 -4z" />
<glyph unicode="n" horiz-adv-x="1236" d="M90 -2v63q119 6 139 43q18 37 19 129v381q0 106 -19 154q-12 31 -110 90v27l243 139l19 -12v-170q242 168 387 168q125 0 188 -97q35 -51 44.5 -116.5t9.5 -204.5v-336q0 -129 18 -152q25 -33 143 -43v-63q-131 4 -227 4q-76 0 -227 -4v63q106 10 135 41q29 33 29 295 q0 301 -31 389q-39 102 -178 103q-66 0 -141.5 -29t-110.5 -65q-25 -27 -32 -61t-7 -111v-385q0 -109 20 -138q20 -31 144 -39v-63q-119 4 -232 4q-100 0 -223 -4z" />
<glyph unicode="o" horiz-adv-x="1181" d="M96 469q0 252 153.5 399.5t364.5 147.5q203 0 337 -145.5t134 -360.5q0 -240 -144 -392.5t-359 -152.5q-211 0 -348.5 146.5t-137.5 357.5zM250 524q0 -197 91 -337t261 -140q156 0 243 109.5t87 298.5q0 213 -97.5 346t-246.5 133q-156 0 -247 -113t-91 -297z" />
<glyph unicode="p" horiz-adv-x="1200" d="M78 -438q84 6 108.5 18t33.5 43t9 111v891q0 111 -18 149q-14 33 -111 90v27l244 139l18 -12v-170q199 162 343 162q166 0 282.5 -133.5t116.5 -335.5q0 -244 -151.5 -400.5t-383.5 -156.5q-102 0 -209 34l5 -276q0 -102 20 -137q18 -33 160 -43v-64q-72 4 -242 4 q-98 0 -225 -4v64zM362 344q0 -82 6.5 -119t34.5 -73q63 -80 209 -80q156 0 250 107.5t94 297.5q0 186 -90 299t-235 113q-80 0 -143.5 -29t-94.5 -72q-31 -41 -31 -110v-334z" />
<glyph unicode="q" horiz-adv-x="1187" d="M96 444q0 244 155 407t386 163q141 0 256 -53l47 75l59 -12q-14 -158 -14 -360v-926q0 -135 43 -158q25 -12 109 -18v-64q-127 4 -226 4q-170 0 -241 -4v64q141 10 159 43q23 39 23 133v395q-178 -145 -350 -145q-168 0 -287 126.5t-119 329.5zM244 508q0 -186 94 -297 t237 -111q84 0 155 36t101 79q20 29 21 74v364q0 57 -2 83t-10.5 54.5t-28.5 55.5q-66 82 -213 82q-160 0 -257 -115t-97 -305z" />
<glyph unicode="r" horiz-adv-x="780" d="M90 -2v63q102 8 127 29q31 25 31 150v376q0 106 -19 152q-18 35 -110 90v27l243 139l21 -14v-201q139 201 260 201q74 0 150 -70l-101 -137q-78 61 -135 61q-63 0 -123 -73q-33 -39 -43 -83t-10 -137v-327q0 -113 20 -142q27 -33 158 -41v-63q-102 4 -237 4 q-97 0 -232 -4z" />
<glyph unicode="s" horiz-adv-x="804" d="M88 264l62 4q25 -98 73 -151q61 -63 199 -64q76 0 130 40t54 104q0 68 -44 115.5t-193 125.5q-131 68 -186.5 137.5t-55.5 165.5q0 121 99.5 198t254.5 77q94 0 203 -35q8 -186 12 -233l-63 -5q-23 90 -55 134q-45 57 -162 57q-74 0 -124 -40t-50 -97q0 -66 45 -116 t172 -112q152 -76 206 -146.5t54 -164.5q0 -121 -95.5 -207t-244.5 -86q-154 0 -273 60q-12 112 -18 239z" />
<glyph unicode="t" horiz-adv-x="647" d="M70 868v50q96 37 136 95t89 195h53l-8 -250h264v-90h-268q-4 -328 -4 -587q0 -104 24 -148q29 -55 103 -55q63 0 155 61l35 -43q-121 -119 -258 -119q-117 0 -164 82q-33 63 -32 185q0 225 10 624h-135z" />
<glyph unicode="u" horiz-adv-x="1198" d="M49 891v65q195 16 307 37q-16 -246 -16 -514q0 -231 54.5 -312t176.5 -81q68 0 140.5 33t105.5 82q29 35 29 153v394q0 94 -31 117.5t-139 25.5v65q201 18 311 39q-8 -197 -8 -262v-471q0 -115 20 -137q18 -23 140 -23v-53l-277 -88l-18 14v154q-190 -158 -359 -158 q-279 0 -278 365v414q0 84 -31 110.5t-127 30.5z" />
<glyph unicode="v" horiz-adv-x="1067" d="M10 918v63q53 -4 232 -4q109 0 211 4v-63q-86 -2 -116 -16.5t-30 -45.5q0 -27 35 -119l211 -565l221 569q27 70 27 113q0 31 -31 46t-119 18v63q131 -4 211 -4q127 0 199 4v-63q-63 -6 -98 -31t-64 -90q-238 -553 -334 -820h-76q-74 219 -325 820q-31 74 -59.5 95.5 t-94.5 25.5z" />
<glyph unicode="w" horiz-adv-x="1611" d="M10 918v63q51 -4 234 -4q111 0 209 4v-63q-82 -2 -111 -16.5t-29 -45.5t29 -121q59 -195 182 -553l118 301l122 312q-16 72 -49 95t-101 28v63q51 -4 220 -4q106 0 204 4v-63q-82 -2 -108.5 -17.5t-26.5 -48.5t31 -117l196 -553l193 561q25 72 25 111q0 31 -29 46 t-113 18v63q123 -4 203 -4q129 0 197 4v-63q-72 -6 -104 -29t-58 -90q-209 -532 -305 -822h-74q-63 209 -258 717q-254 -641 -281 -717h-73q-104 344 -283 822q-29 74 -57.5 94.5t-102.5 24.5z" />
<glyph unicode="x" horiz-adv-x="1046" d="M6 -2v63q76 2 120 34t130 143l197 249l-174 254q-78 113 -116 143.5t-112 33.5v63q135 -4 221 -4q84 0 228 4v-63q-127 0 -127 -46q0 -25 76 -139l92 -141l106 139q84 109 84 143q0 25 -24.5 33t-108.5 11v63q139 -4 201 -4q98 0 192 4v-63q-61 -2 -112.5 -39 t-137.5 -146l-157 -203l207 -290q80 -111 128 -141.5t121 -37.5v-63q-135 4 -247 4q-86 0 -238 -4v63q82 2 107.5 14.5t25.5 35.5q0 29 -76 141l-116 172l-129 -174q-76 -100 -76 -141t139 -48v-63q-106 4 -223 4q-90 0 -201 -4z" />
<glyph unicode="y" horiz-adv-x="1077" d="M20 918v63q53 -4 232 -4q102 0 205 4v-63q-84 -2 -112 -15.5t-28 -46.5q0 -23 37 -119l232 -565q158 420 200 569q20 74 21 113q0 31 -27.5 46t-115.5 18v63q131 -4 208 -4q127 0 199 4v-63q-63 -6 -100 -31t-62 -90l-74 -201l-110 -297l-92 -240q-82 -205 -171 -347 t-220 -238l-88 118q246 123 358 416l-307 721q-51 121 -80 154t-105 35z" />
<glyph unicode="z" horiz-adv-x="954" d="M39 29q383 494 645 870q-285 0 -360.5 -6t-104.5 -33q-23 -25 -69 -143l-68 14q23 80 55 258q199 -14 443 -14q162 0 286 6l17 -35l-635 -862q98 -4 254 -4q127 0 184 10q68 12 105.5 51t82.5 146l68 -15q-4 -16 -35 -119l-45 -155q-319 4 -411 4q-55 0 -151.5 -1 t-170.5 -2t-76 -1z" />
<glyph unicode="{" horiz-adv-x="665" d="M53 625q127 12 163 73.5t36 235.5v260q0 180 81 269t312 89v-67q-150 0 -199 -55.5t-49 -229.5v-321q0 -141 -41 -197.5t-163 -85.5q119 -25 162.5 -82t43.5 -201v-333q0 -156 51.5 -213.5t194.5 -57.5v-69q-215 0 -302 76.5t-87 254.5v305q0 145 -41 211t-162 76v62z " />
<glyph unicode="|" horiz-adv-x="497" d="M186 -389v1945h125v-1945h-125z" />
<glyph unicode="}" horiz-adv-x="665" d="M20 1483v69q215 0 302.5 -76.5t87.5 -254.5v-306q0 -145 41 -210.5t161 -75.5v-62q-127 -12 -162.5 -73.5t-35.5 -235.5v-260q0 -180 -81 -269t-313 -89v67q150 0 199 55.5t49 229.5v321q0 141 41 197.5t164 85.5q-119 25 -163 82t-44 201v333q0 156 -51.5 213.5 t-194.5 57.5z" />
<glyph unicode="~" horiz-adv-x="1497" d="M170 555q164 223 336 223q51 0 110.5 -20.5t184.5 -87.5q121 -68 186 -68q129 0 246 174l92 -71q-160 -227 -338 -228q-104 0 -246 82q-172 98 -237.5 98t-121.5 -37.5t-120 -127.5z" />
<glyph unicode="&#xa1;" horiz-adv-x="583" d="M145 907q0 49 33 83t82 34q47 0 81 -34t34 -85t-34 -84t-83 -33t-81 34t-32 85zM156 -475q0 186 73 1063h60q66 -782 65 -1063h-198z" />
<glyph unicode="&#xa2;" horiz-adv-x="995" d="M143 467q0 227 108.5 370.5t272.5 188.5v193h86v-179q12 2 41 2q137 0 252 -81l-92 -121q-106 94 -201 106v-833h8q129 0 285 118l45 -49q-174 -178 -338 -188v-189h-86v191q-164 18 -272.5 146t-108.5 325zM272 545q0 -166 71 -274.5t181 -143.5v815 q-102 -25 -177 -138.5t-75 -258.5z" />
<glyph unicode="&#xa3;" horiz-adv-x="1159" d="M47 -2l33 131q51 4 113 23q84 25 136 136t52 290h-215v90h215q-2 80 -2 266q2 199 141 335t322 136q137 0 248 -78l-84 -135q-123 109 -258 108q-82 0 -144.5 -74.5t-62.5 -234.5q0 -223 -2 -323h303v-90h-310q-10 -133 -54 -237.5t-171 -193.5q34 0 153 1q118 1 177 2 q246 0 299 20q74 29 111 166l63 -6q-23 -111 -59 -332q-98 0 -221 1t-210.5 2t-97.5 1q-356 0 -475 -4z" />
<glyph unicode="&#xa4;" horiz-adv-x="1363" d="M131 174l150 148q-111 145 -111 315q0 174 109 313l-146 148l90 86l146 -146q141 111 315 111q180 0 315 -109l148 146l86 -84l-146 -148q106 -125 107 -315q0 -178 -113 -315l150 -150l-88 -86l-148 148q-139 -109 -311 -109q-178 0 -317 109l-146 -146zM301 639 q0 -164 110.5 -276.5t272.5 -112.5q166 0 274.5 111.5t108.5 277.5q0 164 -111.5 275.5t-273.5 111.5t-271.5 -111.5t-109.5 -275.5z" />
<glyph unicode="&#xa5;" horiz-adv-x="1351" d="M35 1300v66q98 -6 256 -6q143 0 260 6v-66q-90 -4 -122 -14t-32 -39q0 -37 45 -117l263 -462l260 430q51 86 51 149q0 51 -148 53v66q74 -6 219 -6q94 0 230 6v-66q-68 -6 -107 -34.5t-114 -147.5l-209 -323h227v-82h-280l-89 -146v-18h369v-82h-369v-221q0 -109 21 -137 q27 -37 172 -46v-65q-160 6 -272 6q-45 0 -260 -6v65q147 6 172 50q18 37 18 129v225h-377v82h377v18l-88 146h-289v82h240l-203 342q-61 100 -101 128.5t-120 34.5z" />
<glyph unicode="&#xa6;" horiz-adv-x="497" d="M186 -295v717h125v-717h-125zM186 729v717h125v-717h-125z" />
<glyph unicode="&#xa7;" horiz-adv-x="980" d="M92 694q0 174 225 293q-100 117 -100 246q0 121 101.5 207t254.5 86q162 0 273 -88l-92 -119q-119 115 -250 115q-68 0 -111 -42t-43 -112q0 -72 38 -134.5t149 -158.5l159 -141q131 -117 170 -196t39 -169q0 -166 -237 -309q59 -61 89.5 -114.5t36 -83t5.5 -72.5 q0 -121 -114 -220.5t-273 -99.5q-180 0 -301 96l92 121q131 -113 289 -112q84 0 130 45t46 116q0 61 -41 129t-162 185l-189 182q-80 78 -122.5 148.5t-52 110.5t-9.5 91zM229 731q0 -121 125 -246l109 -108l155 -156q152 100 152 221q0 35 -8 64t-46 84t-110 123l-114 108 q-61 55 -125 119q-138 -74 -138 -209z" />
<glyph unicode="&#xa8;" horiz-adv-x="598" d="M41 1282q0 41 27.5 68.5t66.5 27.5t64.5 -27.5t25.5 -68.5t-26.5 -68.5t-65.5 -27.5q-37 0 -64.5 27.5t-27.5 68.5zM373 1282q0 41 27.5 68.5t66.5 27.5t64.5 -27.5t25.5 -68.5t-26.5 -68.5t-65.5 -27.5q-37 0 -64.5 27.5t-27.5 68.5z" />
<glyph unicode="&#xa9;" horiz-adv-x="1689" d="M88 727q0 315 221 532.5t543 217.5q313 0 533.5 -216.5t220.5 -525.5q0 -324 -217.5 -545t-532.5 -221q-330 0 -549 218t-219 540zM174 725q0 -285 198.5 -485.5t485.5 -200.5q279 0 470.5 197.5t191.5 482.5q0 295 -189.5 492.5t-476.5 197.5q-291 0 -485.5 -197.5 t-194.5 -486.5zM399 729q0 207 134.5 343t345.5 136q125 0 225 -28q41 -10 74 -23q2 -31 6 -76l7 -77q3 -33 7 -62l-59 -4q-25 115 -80 161t-178 46q-152 0 -246 -107.5t-94 -294.5q0 -197 96 -310.5t266 -113.5q102 0 160.5 46.5t87.5 169.5l59 -9q-27 -158 -49 -219 q-96 -55 -274 -55q-227 0 -357.5 128t-130.5 349z" />
<glyph unicode="&#xaa;" horiz-adv-x="651" d="M86 729q0 57 49 94q55 37 225 80q35 8 43.5 19.5t8.5 54.5q0 106 -17 129q-20 33 -88 33q-43 0 -72.5 -16.5t-29.5 -41.5q0 -14 20 -55l-88 -45q-29 49 -28 66q0 43 53 79q123 84 207 84q33 0 70.5 -15t52.5 -38q20 -25 20 -115v-115q0 -56 -1 -90t-1 -38q0 -90 8 -119 t43 -29q25 0 53 27l29 -23q-63 -78 -133 -77q-66 0 -90 81q-100 -84 -174 -84q-70 0 -115 44t-45 110zM197 737q0 -37 27.5 -60.5t70.5 -23.5q66 0 98 39q18 23 19 101v71l-27 -6q-117 -27 -152.5 -51.5t-35.5 -69.5z" />
<glyph unicode="&#xab;" horiz-adv-x="847" d="M66 481v45q176 152 370 338l37 -30l-252 -326l252 -342l-39 -33zM387 481v45q176 152 371 338l37 -30l-252 -326l252 -342l-39 -33z" />
<glyph unicode="&#xac;" horiz-adv-x="1497" d="M152 571v117h1112v-614h-123v497h-989z" />
<glyph unicode="&#xad;" horiz-adv-x="636" d="M76 455v133h485v-133h-485z" />
<glyph unicode="&#xae;" horiz-adv-x="1689" d="M88 727q0 315 221 532.5t543 217.5q313 0 533.5 -216.5t220.5 -525.5q0 -324 -217.5 -545t-532.5 -221q-330 0 -549 218t-219 540zM174 725q0 -285 198.5 -485.5t485.5 -200.5q279 0 470.5 197.5t191.5 482.5q0 295 -189.5 492.5t-476.5 197.5q-291 0 -485.5 -197.5 t-194.5 -486.5zM496 307v58q84 6 98 28q12 25 12 78v557q0 70 -18 88q-16 18 -92 25v55q49 -4 176 -4q18 0 71.5 1t67.5 1q356 0 356 -238q0 -78 -52 -139t-146 -94q117 -193 166 -252q45 -57 81.5 -83t90.5 -40l-7 -51q-158 4 -237 78q-98 90 -221 332h-19q-39 0 -96 4 v-236q0 -72 12 -86q14 -23 99 -24v-58q-70 4 -166 4q-98 0 -176 -4zM727 772q45 -4 90 -4q217 0 217 184q0 102 -53 141.5t-184 39.5q-41 0 -70 -5v-356z" />
<glyph unicode="&#xaf;" horiz-adv-x="598" d="M37 1190v115h524v-115h-524z" />
<glyph unicode="&#xb0;" horiz-adv-x="702" d="M66 1188q0 129 83.5 205.5t202.5 76.5q121 0 204 -71.5t83 -208.5q0 -129 -84 -206t-203 -77q-121 0 -203.5 74t-82.5 207zM176 1190q0 -88 48 -145.5t128 -57.5q82 0 130 56.5t48 144.5q0 90 -48 146.5t-130 56.5q-78 0 -127 -56.5t-49 -144.5z" />
<glyph unicode="&#xb1;" horiz-adv-x="1497" d="M193 0v117h1112v-117h-1112zM193 729v117h493v483h125v-483h494v-117h-494v-485h-123v485h-495z" />
<glyph unicode="&#xb2;" horiz-adv-x="749" d="M51 958q109 84 139 115q168 156 231.5 259.5t63.5 213.5q0 147 -131 148q-123 0 -207 -142l-57 29q98 186 281 186q246 0 245 -223q0 -59 -26.5 -121.5t-56 -105.5t-95 -107.5t-96.5 -90.5l-109 -89q250 0 426 6l-26 -114q-201 4 -305 4q-125 0 -273 -4z" />
<glyph unicode="&#xb3;" horiz-adv-x="749" d="M109 1634q121 133 262 133q94 0 144 -44t50 -115q0 -127 -170 -205q98 0 163 -49t65 -140q0 -98 -82 -179t-190.5 -124t-223.5 -55l-12 88q61 0 119.5 10.5t120 35t99.5 74.5t38 122q0 82 -38 115.5t-112 33.5q-66 0 -135 -20l-17 57q104 31 144 51q104 49 104 164 q0 49 -28.5 77t-73.5 28q-84 0 -189 -99z" />
<glyph unicode="&#xb4;" horiz-adv-x="604" d="M113 1149q117 201 202 375l177 -49q-147 -160 -342 -349z" />
<glyph unicode="&#xb5;" horiz-adv-x="1198" d="M51 891v65q190 16 305 37q-16 -246 -16 -512q0 -160 27.5 -246t74.5 -114.5t129 -28.5q68 0 140.5 30t105.5 79q29 35 29 153v394q0 94 -31 117.5t-139 25.5v65q201 18 311 39q-8 -197 -8 -262v-471q0 -115 20 -137q18 -23 140 -23v-53l-277 -88l-18 14v154 q-184 -152 -338 -152q-109 0 -180 80q0 -328 18 -534l-141 -21q6 233 6 467v781q0 84 -31 110.5t-127 30.5z" />
<glyph unicode="&#xb6;" horiz-adv-x="1224" d="M119 915q0 244 150.5 387.5t414.5 143.5q23 0 87.5 -1t105.5 -1q123 0 264 6v-68q-106 0 -135 -34.5t-29 -184.5q0 -35 5 -476t5 -521q0 -213 -43 -323.5t-131 -211.5q-109 -123 -270 -123q-80 0 -158 37l68 142q70 -45 178 -45q150 0 180 143q20 94 20 502q0 711 -6 930 q-4 94 -24.5 129.5t-77.5 35.5q-76 0 -121 -63q-68 -98 -67 -418q0 -135 15 -219t71.5 -143.5t158.5 -59.5v-71q-49 -6 -141 -7q-102 0 -192.5 29t-165 87t-118.5 160.5t-44 237.5z" />
<glyph unicode="&#xb7;" horiz-adv-x="479" d="M125 543q0 51 34 83.5t83 32.5t80.5 -33.5t31.5 -84.5q0 -49 -32.5 -83t-81.5 -34q-47 0 -81 34t-34 85z" />
<glyph unicode="&#xb8;" horiz-adv-x="598" d="M113 -453q246 0 245 134q0 106 -159 106l84 219h69l-51 -129q184 -12 184 -158q0 -80 -61.5 -138t-137 -83.5t-155.5 -32.5z" />
<glyph unicode="&#xb9;" horiz-adv-x="749" d="M178 1649v53q147 18 250 74l16 -11q-6 -68 -6 -188v-492q0 -70 21.5 -86t122.5 -24v-55q-90 4 -209 4q-92 0 -191 -4v55q98 8 120 24.5t22 87.5v439q0 72 -9 94q-12 27 -137 29z" />
<glyph unicode="&#xba;" horiz-adv-x="745" d="M80 893q0 133 86 225t209 92q127 0 209 -86t82 -219q0 -143 -84 -236.5t-211 -93.5q-123 0 -207 91.5t-84 226.5zM195 901q0 -119 53 -192.5t137 -73.5q80 0 125 68.5t45 179.5q0 119 -51 194.5t-131 75.5t-129 -69.5t-49 -182.5z" />
<glyph unicode="&#xbb;" horiz-adv-x="847" d="M53 831l39 33l369 -348v-45q-176 -152 -371 -338l-37 31l252 325zM375 831l39 33l368 -348v-45q-176 -152 -370 -338l-37 31l252 325z" />
<glyph unicode="&#xbc;" horiz-adv-x="1624" d="M168 1270v53q147 18 250 74l16 -11q-6 -68 -6 -188v-491q0 -70 21.5 -86.5t121.5 -24.5v-55q-90 4 -209 4q-92 0 -190 -4v55q98 8 119.5 24.5t21.5 88.5v438q0 72 -8 94q-12 27 -137 29zM492 -4l546 1374h105l-549 -1374h-102zM897 289l449 561l45 -2q0 -6 -1 -90 t-1 -203v-209h131v-90h-131v-256h-113v256q-227 0 -369 -2zM1020 346h256v332l-52 -69l-97 -124z" />
<glyph unicode="&#xbd;" horiz-adv-x="1624" d="M158 1270v53q147 18 250 74l16 -11q-6 -68 -6 -188v-491q0 -70 21.5 -86.5t121.5 -24.5v-55q-90 4 -209 4q-92 0 -190 -4v55q98 8 119.5 24.5t21.5 88.5v438q0 72 -8 94q-12 27 -137 29zM463 -4l547 1374h104l-549 -1374h-102zM911 37q109 84 140 115q168 156 231.5 259 t63.5 214q0 147 -132 147q-123 0 -206 -141l-58 28q98 186 281 187q246 0 246 -223q0 -59 -27 -122t-56.5 -106t-95 -107.5t-96.5 -89.5l-108 -89q250 0 426 6l-27 -115q-201 4 -305 4q-125 0 -273 -4z" />
<glyph unicode="&#xbe;" horiz-adv-x="1624" d="M117 1255q121 133 262 134q94 0 144 -44.5t50 -115.5q0 -127 -170 -205q98 0 163 -49t65 -139q0 -98 -82 -179.5t-190.5 -124.5t-223.5 -55l-12 88q61 0 119.5 10.5t120 35t99.5 74.5t38 122q0 82 -38 115.5t-112 33.5q-66 0 -135 -20l-16 57q104 31 143 51 q104 49 104 164q0 49 -28.5 77t-73.5 28q-84 0 -188 -99zM492 -4l546 1374h105l-549 -1374h-102zM883 289l448 561l45 -2v-90q0 -84 -1 -203t-1 -209h131v-90h-131v-256h-112v256q-227 0 -369 -2zM1006 346h256v332l-53 -69l-96 -124z" />
<glyph unicode="&#xbf;" horiz-adv-x="761" d="M63 10q0 115 66 190.5t209 127.5q59 20 68 90q2 18 10 170h65q14 -240 15 -291q0 -90 -90 -119q-117 -39 -169.5 -83t-52.5 -148q0 -127 93.5 -198t324.5 -71v-153q-233 14 -375 133q-164 139 -164 352zM330 907q0 49 32.5 83t81.5 34q47 0 81 -34t34 -85t-33.5 -84 t-83 -33t-81 34t-31.5 85z" />
<glyph unicode="&#xc0;" horiz-adv-x="1441" d="M8 -2v65q90 12 133 42t82 131l307 794q92 242 144 404l123 39q27 -90 135 -406l280 -815q37 -111 76 -145.5t135 -43.5v-65q-178 6 -272 6q-80 0 -252 -6v65q115 4 145.5 18.5t30.5 53.5t-37 146l-94 282h-485l-103 -284q-37 -96 -37 -142q0 -35 31 -50t144 -24v-65 q-150 6 -234 6q-92 0 -252 -6zM428 1815l156 83q80 -102 288 -329l-30 -31q-256 162 -414 277zM489 647h426l-204 606z" />
<glyph unicode="&#xc1;" horiz-adv-x="1441" d="M8 -2v65q90 12 133 42t82 131l307 794q92 242 144 404l123 39q27 -90 135 -406l280 -815q37 -111 76 -145.5t135 -43.5v-65q-178 6 -272 6q-80 0 -252 -6v65q115 4 145.5 18.5t30.5 53.5t-37 146l-94 282h-485l-103 -284q-37 -96 -37 -142q0 -35 31 -50t144 -24v-65 q-150 6 -234 6q-92 0 -252 -6zM489 647h426l-204 606zM612 1569q209 227 289 329l156 -83q-158 -115 -414 -277z" />
<glyph unicode="&#xc2;" horiz-adv-x="1441" d="M8 -2v65q90 12 133 42t82 131l307 794q92 242 144 404l123 39q27 -90 135 -406l280 -815q37 -111 76 -145.5t135 -43.5v-65q-178 6 -272 6q-80 0 -252 -6v65q115 4 145.5 18.5t30.5 53.5t-37 146l-94 282h-485l-103 -284q-37 -96 -37 -142q0 -35 31 -50t144 -24v-65 q-150 6 -234 6q-92 0 -252 -6zM453 1554q193 205 258 287h77q94 -117 246 -285l-37 -36l-254 182l-251 -182zM489 647h426l-204 606z" />
<glyph unicode="&#xc3;" horiz-adv-x="1441" d="M8 -2v65q90 12 133 42t82 131l307 794q92 242 144 404l123 39q27 -90 135 -406l280 -815q37 -111 76 -145.5t135 -43.5v-65q-178 6 -272 6q-80 0 -252 -6v65q115 4 145.5 18.5t30.5 53.5t-37 146l-94 282h-485l-103 -284q-37 -96 -37 -142q0 -35 31 -50t144 -24v-65 q-150 6 -234 6q-92 0 -252 -6zM430 1587q92 213 186 213q29 0 119 -28l74 -29q57 -25 100 -25q51 0 111 105l45 -21q-94 -213 -180 -213q-37 0 -127 33l-72 27q-61 23 -90 22q-37 0 -62.5 -22.5t-56.5 -79.5zM489 647h426l-204 606z" />
<glyph unicode="&#xc4;" horiz-adv-x="1441" d="M8 -2v65q90 12 133 42t82 131l307 794q92 242 144 404l123 39q27 -90 135 -406l280 -815q37 -111 76 -145.5t135 -43.5v-65q-178 6 -272 6q-80 0 -252 -6v65q115 4 145.5 18.5t30.5 53.5t-37 146l-94 282h-485l-103 -284q-37 -96 -37 -142q0 -35 31 -50t144 -24v-65 q-150 6 -234 6q-92 0 -252 -6zM465 1692q0 41 27.5 68.5t66.5 27.5t64.5 -27.5t25.5 -68.5t-26.5 -69t-65.5 -28q-37 0 -64.5 28t-27.5 69zM489 647h426l-204 606zM838 1692q0 41 27.5 68.5t66.5 27.5t64.5 -27.5t25.5 -68.5t-26.5 -69t-65.5 -28q-37 0 -64.5 28t-27.5 69z " />
<glyph unicode="&#xc5;" horiz-adv-x="1441" d="M8 -2v65q90 12 133 42t82 131l307 794q92 242 144 404l123 39q27 -90 135 -406l280 -815q37 -111 76 -145.5t135 -43.5v-65q-178 6 -272 6q-80 0 -252 -6v65q115 4 145.5 18.5t30.5 53.5t-37 146l-94 282h-485l-103 -284q-37 -96 -37 -142q0 -35 31 -50t144 -24v-65 q-150 6 -234 6q-92 0 -252 -6zM489 647h426l-204 606zM532 1733q0 84 58.5 140t140.5 56q88 0 141.5 -53t53.5 -137q0 -86 -56.5 -141.5t-140.5 -55.5t-140.5 53.5t-56.5 137.5zM616 1737q0 -55 32 -91t81 -36t82 34.5t33 92.5q0 59 -33 93t-82 34q-47 0 -80 -35t-33 -92z " />
<glyph unicode="&#xc6;" horiz-adv-x="2019" d="M0 -2v65q90 10 138 51.5t155 207.5l442 692q117 180 150 254q12 27 12 57q0 23 -27 37q-33 16 -151 20v66q184 -6 483 -6q381 0 639 6q8 -139 25 -299l-70 -8q-31 137 -90 186q-33 27 -76 36t-145 9q-199 0 -258 -4v-573q236 0 284 18q61 23 88 172h68q-10 -215 -10 -248 q0 -131 4 -213h-68q-18 141 -80 170q-51 25 -286 25v-465q0 -80 16 -109q37 -68 293 -67q199 0 268 96q45 63 88 170l66 -16q-37 -154 -92 -330q-504 6 -656 6q-129 0 -313 -6v65q137 8 158 48q18 37 18 129v350h-487l-146 -246q-98 -166 -98 -207q0 -33 34 -50t144 -24v-65 q-152 6 -256 6t-264 -6zM631 672h442v622q0 45 -18 45q-16 0 -54 -59z" />
<glyph unicode="&#xc7;" horiz-adv-x="1529" d="M119 727q0 326 215 536t555 210q180 0 362 -48q57 -14 119 -34q18 -217 33 -324l-78 -8q-43 178 -137 251.5t-297 73.5q-276 0 -437 -173t-161 -470q0 -311 169 -496.5t464 -185.5q168 0 270 73t150 261l77 -12q-41 -227 -80 -326q-68 -37 -195.5 -60.5t-246.5 -23.5 l-39 -98q193 -12 193 -164q0 -82 -64.5 -143.5t-143.5 -87t-163 -33.5l-18 86q256 0 256 137q0 111 -168 111l75 194q-332 20 -521 229.5t-189 524.5z" />
<glyph unicode="&#xc8;" horiz-adv-x="1224" d="M102 -2v65q137 8 158 48q18 37 19 129v966q0 92 -19 129q-20 39 -158 47v66q184 -6 306 -6q381 0 639 6q12 -215 24 -299l-70 -8q-31 137 -90 186q-33 27 -75.5 36t-145.5 9q-199 0 -258 -4v-573q236 0 285 18q61 23 88 172h67q-10 -215 -10 -248q0 -131 4 -213h-67 q-18 141 -80 170q-51 25 -287 25v-465q0 -80 17 -109q37 -68 292 -67q199 0 269 96q45 63 88 170l65 -16q-37 -154 -92 -330q-504 6 -655 6q-130 0 -314 -6zM305 1815l156 83q80 -102 289 -329l-31 -31q-256 162 -414 277z" />
<glyph unicode="&#xc9;" horiz-adv-x="1224" d="M102 -2v65q137 8 158 48q18 37 19 129v966q0 92 -19 129q-20 39 -158 47v66q184 -6 306 -6q381 0 639 6q12 -215 24 -299l-70 -8q-31 137 -90 186q-33 27 -75.5 36t-145.5 9q-199 0 -258 -4v-573q236 0 285 18q61 23 88 172h67q-10 -215 -10 -248q0 -131 4 -213h-67 q-18 141 -80 170q-51 25 -287 25v-465q0 -80 17 -109q37 -68 292 -67q199 0 269 96q45 63 88 170l65 -16q-37 -154 -92 -330q-504 6 -655 6q-130 0 -314 -6zM514 1569q209 227 289 329l155 -83q-158 -115 -413 -277z" />
<glyph unicode="&#xca;" horiz-adv-x="1224" d="M102 -2v65q137 8 158 48q18 37 19 129v966q0 92 -19 129q-20 39 -158 47v66q184 -6 306 -6q381 0 639 6q12 -215 24 -299l-70 -8q-31 137 -90 186q-33 27 -75.5 36t-145.5 9q-199 0 -258 -4v-573q236 0 285 18q61 23 88 172h67q-10 -215 -10 -248q0 -131 4 -213h-67 q-18 141 -80 170q-51 25 -287 25v-465q0 -80 17 -109q37 -68 292 -67q199 0 269 96q45 63 88 170l65 -16q-37 -154 -92 -330q-504 6 -655 6q-130 0 -314 -6zM356 1554q193 205 258 287h78q94 -117 246 -285l-37 -36l-254 182l-252 -182z" />
<glyph unicode="&#xcb;" horiz-adv-x="1224" d="M102 -2v65q137 8 158 48q18 37 19 129v966q0 92 -19 129q-20 39 -158 47v66q184 -6 306 -6q381 0 639 6q12 -215 24 -299l-70 -8q-31 137 -90 186q-33 27 -75.5 36t-145.5 9q-199 0 -258 -4v-573q236 0 285 18q61 23 88 172h67q-10 -215 -10 -248q0 -131 4 -213h-67 q-18 141 -80 170q-51 25 -287 25v-465q0 -80 17 -109q37 -68 292 -67q199 0 269 96q45 63 88 170l65 -16q-37 -154 -92 -330q-504 6 -655 6q-130 0 -314 -6zM350 1692q0 41 28 68.5t66.5 27.5t64.5 -27.5t26 -68.5t-27 -69t-66 -28q-37 0 -64.5 28t-27.5 69zM723 1692 q0 41 27.5 68.5t66.5 27.5t64.5 -27.5t25.5 -68.5t-26.5 -69t-65.5 -28q-37 0 -64.5 28t-27.5 69z" />
<glyph unicode="&#xcc;" horiz-adv-x="712" d="M20 1815l156 83q80 -102 289 -329l-31 -31q-256 162 -414 277zM102 -2v65q137 8 158 48q18 37 19 129v964q0 94 -19 131q-20 39 -158 47v66q184 -6 250 -6q92 0 258 6v-66q-133 -10 -155 -43q-20 -29 -21 -139v-956q0 -109 21 -138q23 -33 155 -43v-65q-166 6 -258 6 q-66 0 -250 -6z" />
<glyph unicode="&#xcd;" horiz-adv-x="712" d="M102 -2v65q137 8 158 48q18 37 19 129v964q0 94 -19 131q-20 39 -158 47v66q184 -6 250 -6q92 0 258 6v-66q-133 -10 -155 -43q-20 -29 -21 -139v-956q0 -109 21 -138q23 -33 155 -43v-65q-166 6 -258 6q-66 0 -250 -6zM258 1569q209 227 289 329l155 -83 q-158 -115 -413 -277z" />
<glyph unicode="&#xce;" horiz-adv-x="712" d="M72 1554q193 205 258 287h78q94 -117 245 -285l-37 -36l-254 182l-251 -182zM102 -2v65q137 8 158 48q18 37 19 129v964q0 94 -19 131q-20 39 -158 47v66q184 -6 250 -6q92 0 258 6v-66q-133 -10 -155 -43q-20 -29 -21 -139v-956q0 -109 21 -138q23 -33 155 -43v-65 q-166 6 -258 6q-66 0 -250 -6z" />
<glyph unicode="&#xcf;" horiz-adv-x="712" d="M78 1692q0 41 27.5 68.5t66.5 27.5t64.5 -27.5t25.5 -68.5t-26.5 -69t-65.5 -28q-37 0 -64.5 28t-27.5 69zM102 -2v65q137 8 158 48q18 37 19 129v964q0 94 -19 131q-20 39 -158 47v66q184 -6 250 -6q92 0 258 6v-66q-133 -10 -155 -43q-20 -29 -21 -139v-956 q0 -109 21 -138q23 -33 155 -43v-65q-166 6 -258 6q-66 0 -250 -6zM451 1692q0 41 27.5 68.5t66.5 27.5t64.5 -27.5t25.5 -68.5t-26.5 -69t-65.5 -28q-37 0 -64.5 28t-27.5 69z" />
<glyph unicode="&#xd0;" horiz-adv-x="1601" d="M98 715v94h181v397q0 92 -19 129q-20 39 -158 47v66q123 -4 244 -4q23 0 155 2t175 2q406 0 606.5 -186.5t200.5 -513.5q0 -379 -231.5 -563.5t-624.5 -184.5q-45 0 -149.5 2t-131.5 2q-59 0 -244 -6v65q137 8 158 48q18 37 19 129v475h-181zM432 809h459v-94h-459v-422 q0 -109 17 -141q31 -63 247 -64q274 0 442.5 162t168.5 473q0 145 -32 256t-107.5 201t-213 137t-333.5 47q-133 0 -189 -4v-551z" />
<glyph unicode="&#xd1;" horiz-adv-x="1642" d="M43 1382v66q82 -4 180 -4q74 0 148 4q39 -61 85 -124l73 -97q28 -35 106 -125t110 -131l566 -662q2 111 2 332q0 276 -6 502q-4 156 -42 194.5t-171 44.5v66q147 -4 262 -4q84 0 239 4v-66q-119 -6 -151.5 -45t-38.5 -194q-2 -80 -2 -402q0 -496 14 -753l-67 -13 q-80 119 -170 232l-803 956q-4 -141 -4 -413q0 -279 2 -420q2 -172 41 -216t178 -51v-65q-164 4 -266 4q-201 0 -254 -4v65q88 6 126 24.5t55 77t19 185.5l5 370l3 277q1 94 1 136q0 121 -41 174q-31 41 -70 55t-129 20zM555 1587q92 213 186 213q29 0 119 -28l74 -29 q57 -25 100 -25q51 0 111 105l45 -21q-94 -213 -180 -213q-37 0 -127 33l-72 27q-61 23 -90 22q-37 0 -62.5 -22.5t-56.5 -79.5z" />
<glyph unicode="&#xd2;" horiz-adv-x="1689" d="M119 698q0 330 216 552.5t533 222.5q309 0 506 -209t197 -516q0 -336 -209 -556.5t-528 -220.5q-307 0 -511 206t-204 521zM295 739q0 -303 152.5 -491.5t416.5 -188.5q231 0 381 173.5t150 463.5q0 322 -162 505t-402 183q-231 0 -383.5 -178t-152.5 -467zM530 1815 l156 83q80 -102 289 -329l-31 -31q-256 162 -414 277z" />
<glyph unicode="&#xd3;" horiz-adv-x="1689" d="M119 698q0 330 216 552.5t533 222.5q309 0 506 -209t197 -516q0 -336 -209 -556.5t-528 -220.5q-307 0 -511 206t-204 521zM295 739q0 -303 152.5 -491.5t416.5 -188.5q231 0 381 173.5t150 463.5q0 322 -162 505t-402 183q-231 0 -383.5 -178t-152.5 -467zM711 1569 q209 227 288 329l156 -83q-158 -115 -414 -277z" />
<glyph unicode="&#xd4;" horiz-adv-x="1689" d="M119 698q0 330 216 552.5t533 222.5q309 0 506 -209t197 -516q0 -336 -209 -556.5t-528 -220.5q-307 0 -511 206t-204 521zM295 739q0 -303 152.5 -491.5t416.5 -188.5q231 0 381 173.5t150 463.5q0 322 -162 505t-402 183q-231 0 -383.5 -178t-152.5 -467zM553 1554 q193 205 258 287h78q94 -117 246 -285l-37 -36l-254 182l-252 -182z" />
<glyph unicode="&#xd5;" horiz-adv-x="1689" d="M119 698q0 330 216 552.5t533 222.5q309 0 506 -209t197 -516q0 -336 -209 -556.5t-528 -220.5q-307 0 -511 206t-204 521zM295 739q0 -303 152.5 -491.5t416.5 -188.5q231 0 381 173.5t150 463.5q0 322 -162 505t-402 183q-231 0 -383.5 -178t-152.5 -467zM516 1587 q92 213 186 213q29 0 119 -28l74 -29q57 -25 100 -25q51 0 111 105l45 -21q-94 -213 -180 -213q-37 0 -127 33l-72 27q-61 23 -90 22q-37 0 -62.5 -22.5t-56.5 -79.5z" />
<glyph unicode="&#xd6;" horiz-adv-x="1689" d="M119 698q0 330 216 552.5t533 222.5q309 0 506 -209t197 -516q0 -336 -209 -556.5t-528 -220.5q-307 0 -511 206t-204 521zM295 739q0 -303 152.5 -491.5t416.5 -188.5q231 0 381 173.5t150 463.5q0 322 -162 505t-402 183q-231 0 -383.5 -178t-152.5 -467zM559 1692 q0 41 27.5 68.5t66.5 27.5t64.5 -27.5t25.5 -68.5t-26.5 -69t-65.5 -28q-37 0 -64.5 28t-27.5 69zM932 1692q0 41 27.5 68.5t66.5 27.5t64.5 -27.5t25.5 -68.5t-26.5 -69t-65.5 -28q-37 0 -64.5 28t-27.5 69z" />
<glyph unicode="&#xd7;" horiz-adv-x="1497" d="M289 1008l84 84l377 -379l378 377l80 -80l-377 -379l371 -371l-82 -84l-372 371l-373 -373l-80 80l371 375z" />
<glyph unicode="&#xd8;" horiz-adv-x="1689" d="M119 698.5q0 329.5 216 552t533 222.5q231 0 406 -123l139 176l68 -49l-142 -179q231 -211 232 -550q0 -336 -209 -556.5t-528 -220.5q-246 0 -431 135l-141 -178l-67 45l145 187q-221 209 -221 538.5zM295 739q0 -283 133 -467l764 971q-152 141 -361 141 q-231 0 -383.5 -178t-152.5 -467zM483 209q145 -150 381 -150q231 0 381 173.5t150 463.5q0 295 -148 486z" />
<glyph unicode="&#xd9;" horiz-adv-x="1576" d="M43 1382v66q184 -6 248 -6q92 0 264 6v-66q-139 -10 -162 -43q-20 -29 -20 -137q-2 -170 -2 -602q0 -231 59 -334q109 -182 381 -182q123 0 208 30.5t131 77t70.5 129t30.5 155.5t6 190q0 377 -8 477q-12 152 -50 192.5t-163 46.5v66q147 -4 264 -4q86 0 242 4v-66 q-119 -6 -155.5 -49t-36.5 -198q0 -39 1 -285t1 -313q0 -567 -568 -568q-158 0 -286.5 56.5t-200.5 158.5q-78 111 -78 336v686q0 92 -18 129q-21 39 -158 47zM489 1815l156 83q80 -102 289 -329l-31 -31q-256 162 -414 277z" />
<glyph unicode="&#xda;" horiz-adv-x="1576" d="M43 1382v66q184 -6 248 -6q92 0 264 6v-66q-139 -10 -162 -43q-20 -29 -20 -137q-2 -170 -2 -602q0 -231 59 -334q109 -182 381 -182q123 0 208 30.5t131 77t70.5 129t30.5 155.5t6 190q0 377 -8 477q-12 152 -50 192.5t-163 46.5v66q147 -4 264 -4q86 0 242 4v-66 q-119 -6 -155.5 -49t-36.5 -198q0 -39 1 -285t1 -313q0 -567 -568 -568q-158 0 -286.5 56.5t-200.5 158.5q-78 111 -78 336v686q0 92 -18 129q-21 39 -158 47zM694 1569q209 227 289 329l156 -83q-158 -115 -414 -277z" />
<glyph unicode="&#xdb;" horiz-adv-x="1576" d="M43 1382v66q184 -6 248 -6q92 0 264 6v-66q-139 -10 -162 -43q-20 -29 -20 -137q-2 -170 -2 -602q0 -231 59 -334q109 -182 381 -182q123 0 208 30.5t131 77t70.5 129t30.5 155.5t6 190q0 377 -8 477q-12 152 -50 192.5t-163 46.5v66q147 -4 264 -4q86 0 242 4v-66 q-119 -6 -155.5 -49t-36.5 -198q0 -39 1 -285t1 -313q0 -567 -568 -568q-158 0 -286.5 56.5t-200.5 158.5q-78 111 -78 336v686q0 92 -18 129q-21 39 -158 47zM524 1554q193 205 258 287h78q94 -117 246 -285l-37 -36l-254 182l-252 -182z" />
<glyph unicode="&#xdc;" horiz-adv-x="1576" d="M43 1382v66q184 -6 248 -6q92 0 264 6v-66q-139 -10 -162 -43q-20 -29 -20 -137q-2 -170 -2 -602q0 -231 59 -334q109 -182 381 -182q123 0 208 30.5t131 77t70.5 129t30.5 155.5t6 190q0 377 -8 477q-12 152 -50 192.5t-163 46.5v66q147 -4 264 -4q86 0 242 4v-66 q-119 -6 -155.5 -49t-36.5 -198q0 -39 1 -285t1 -313q0 -567 -568 -568q-158 0 -286.5 56.5t-200.5 158.5q-78 111 -78 336v686q0 92 -18 129q-21 39 -158 47zM545 1692q0 41 27.5 68.5t66.5 27.5t64.5 -27.5t25.5 -68.5t-26.5 -69t-65.5 -28q-37 0 -64.5 28t-27.5 69z M918 1692q0 41 27.5 68.5t66.5 27.5t64.5 -27.5t25.5 -68.5t-26.5 -69t-65.5 -28q-37 0 -64.5 28t-27.5 69z" />
<glyph unicode="&#xdd;" horiz-adv-x="1316" d="M14 1382v66q98 -6 256 -6q141 0 258 6v-66q-90 -4 -121.5 -14t-31.5 -39q0 -33 45 -117l149 -275l125 -224l256 440q63 113 64 176q0 51 -148 53v66q74 -6 215 -6q94 0 230 6v-66q-66 -6 -112 -46t-122 -165l-340 -550v-377q0 -106 21 -135q27 -37 172 -46v-65 q-160 6 -273 6q-49 0 -264 -6v65q147 6 172 50q18 37 19 127v368l-348 611q-59 100 -100.5 128.5t-121.5 34.5zM588 1569q209 227 289 329l155 -83q-158 -115 -414 -277z" />
<glyph unicode="&#xde;" horiz-adv-x="1220" d="M102 -2v65q137 8 158 48q18 37 19 129v964q0 94 -19 131q-20 39 -158 47v66q184 -6 248 -6q92 0 258 6v-66q-133 -10 -155 -43q-20 -29 -21 -139v-51q33 0 87 1t67 1q541 0 540 -389q0 -203 -147.5 -311.5t-364.5 -108.5q-63 0 -112 6l10 76q31 -6 70 -6q373 0 372 336 q0 152 -102 236.5t-303 84.5q-72 0 -117 -4v-827q0 -96 25 -131q29 -37 170 -50v-65q-172 6 -281 6q-60 0 -244 -6z" />
<glyph unicode="&#xdf;" horiz-adv-x="1159" d="M82 -2v63q94 6 113 19q43 27 43 133v635h-142v53q51 14 86 41q20 16 28.5 25.5t19 37t16.5 72.5q27 190 65 279q51 119 154.5 192.5t218.5 73.5q147 0 229 -87t82 -210q0 -186 -161 -348q-78 -78 -108 -114t-30 -62q0 -39 36 -75t181 -151q86 -70 128 -134t42 -146 q0 -147 -109.5 -235.5t-242.5 -88.5q-156 0 -280 107l104 108q41 -53 100.5 -89t110.5 -36q88 0 136 49.5t48 137.5q0 115 -164 241q-145 113 -190 160t-45 101q0 31 16.5 61.5t33.5 51t61 63.5q195 201 194 354q0 117 -54 187.5t-153 70.5q-109 0 -172 -86t-86 -221 q-18 -113 -18 -936q0 -199 6 -297q-45 4 -131 4q-47 0 -166 -4z" />
<glyph unicode="&#xe0;" horiz-adv-x="1032" d="M113 223q0 104 77 158q51 37 129 62.5t261 70.5q59 14 75.5 31.5t16.5 72.5q0 176 -31 228q-45 74 -143 74q-88 0 -148.5 -35t-60.5 -84q0 -45 39 -107l-131 -67q-49 78 -50 123q0 63 86 133q80 63 171.5 99t156.5 36q152 0 215 -94q33 -51 33 -185q0 -39 -3 -183 t-3 -212q0 -141 21.5 -194.5t72.5 -53.5q39 0 88 31l31 -39q-117 -106 -197 -106q-86 0 -143 124q-160 -131 -283 -131q-119 0 -199.5 75t-80.5 173zM225 1475l176 49q72 -141 203 -375l-37 -23q-119 111 -342 349zM264 233q0 -61 49.5 -105t122.5 -44q123 0 193 57 q29 23 36 43.5t7 67.5v215q-256 -57 -332 -103.5t-76 -130.5z" />
<glyph unicode="&#xe1;" horiz-adv-x="1032" d="M113 223q0 104 77 158q51 37 129 62.5t261 70.5q59 14 75.5 31.5t16.5 72.5q0 176 -31 228q-45 74 -143 74q-88 0 -148.5 -35t-60.5 -84q0 -45 39 -107l-131 -67q-49 78 -50 123q0 63 86 133q80 63 171.5 99t156.5 36q152 0 215 -94q33 -51 33 -185q0 -39 -3 -183 t-3 -212q0 -141 21.5 -194.5t72.5 -53.5q39 0 88 31l31 -39q-117 -106 -197 -106q-86 0 -143 124q-160 -131 -283 -131q-119 0 -199.5 75t-80.5 173zM264 233q0 -61 49.5 -105t122.5 -44q123 0 193 57q29 23 36 43.5t7 67.5v215q-256 -57 -332 -103.5t-76 -130.5zM412 1149 q117 201 202 375l177 -49q-147 -160 -342 -349z" />
<glyph unicode="&#xe2;" horiz-adv-x="1032" d="M113 223q0 104 77 158q51 37 129 62.5t261 70.5q59 14 75.5 31.5t16.5 72.5q0 176 -31 228q-45 74 -143 74q-88 0 -148.5 -35t-60.5 -84q0 -45 39 -107l-131 -67q-49 78 -50 123q0 63 86 133q80 63 171.5 99t156.5 36q152 0 215 -94q33 -51 33 -185q0 -39 -3 -183 t-3 -212q0 -141 21.5 -194.5t72.5 -53.5q39 0 88 31l31 -39q-117 -106 -197 -106q-86 0 -143 124q-160 -131 -283 -131q-119 0 -199.5 75t-80.5 173zM217 1120q150 195 256 355h62l243 -353l-37 -30l-243 223l-242 -223zM264 233q0 -61 49.5 -105t122.5 -44q123 0 193 57 q29 23 36 43.5t7 67.5v215q-256 -57 -332 -103.5t-76 -130.5z" />
<glyph unicode="&#xe3;" horiz-adv-x="1032" d="M113 223q0 104 77 158q51 37 129 62.5t261 70.5q59 14 75.5 31.5t16.5 72.5q0 176 -31 228q-45 74 -143 74q-88 0 -148.5 -35t-60.5 -84q0 -45 39 -107l-131 -67q-49 78 -50 123q0 63 86 133q80 63 171.5 99t156.5 36q152 0 215 -94q33 -51 33 -185q0 -39 -3 -183 t-3 -212q0 -141 21.5 -194.5t72.5 -53.5q39 0 88 31l31 -39q-117 -106 -197 -106q-86 0 -143 124q-160 -131 -283 -131q-119 0 -199.5 75t-80.5 173zM219 1157q84 213 178 213q27 0 113 -29l65 -28q55 -25 93 -25q47 0 102 105l45 -21q-90 -213 -170 -213q-37 0 -121 33 l-59 25q-61 25 -88 24q-35 0 -59.5 -23.5t-53.5 -78.5zM264 233q0 -61 49.5 -105t122.5 -44q123 0 193 57q29 23 36 43.5t7 67.5v215q-256 -57 -332 -103.5t-76 -130.5z" />
<glyph unicode="&#xe4;" horiz-adv-x="1032" d="M113 223q0 104 77 158q51 37 129 62.5t261 70.5q59 14 75.5 31.5t16.5 72.5q0 176 -31 228q-45 74 -143 74q-88 0 -148.5 -35t-60.5 -84q0 -45 39 -107l-131 -67q-49 78 -50 123q0 63 86 133q80 63 171.5 99t156.5 36q152 0 215 -94q33 -51 33 -185q0 -39 -3 -183 t-3 -212q0 -141 21.5 -194.5t72.5 -53.5q39 0 88 31l31 -39q-117 -106 -197 -106q-86 0 -143 124q-160 -131 -283 -131q-119 0 -199.5 75t-80.5 173zM244 1282q0 41 27.5 68.5t66.5 27.5t64.5 -27.5t25.5 -68.5t-26.5 -68.5t-65.5 -27.5q-37 0 -64.5 27.5t-27.5 68.5z M264 233q0 -61 49.5 -105t122.5 -44q123 0 193 57q29 23 36 43.5t7 67.5v215q-256 -57 -332 -103.5t-76 -130.5zM576 1282q0 41 27.5 68.5t66.5 27.5t64.5 -27.5t25.5 -68.5t-26.5 -68.5t-65.5 -27.5q-37 0 -64.5 27.5t-27.5 68.5z" />
<glyph unicode="&#xe5;" horiz-adv-x="1032" d="M113 223q0 104 77 158q51 37 129 62.5t261 70.5q59 14 75.5 31.5t16.5 72.5q0 176 -31 228q-45 74 -143 74q-88 0 -148.5 -35t-60.5 -84q0 -45 39 -107l-131 -67q-49 78 -50 123q0 63 86 133q80 63 171.5 99t156.5 36q152 0 215 -94q33 -51 33 -185q0 -39 -3 -183 t-3 -212q0 -141 21.5 -194.5t72.5 -53.5q39 0 88 31l31 -39q-117 -106 -197 -106q-86 0 -143 124q-160 -131 -283 -131q-119 0 -199.5 75t-80.5 173zM264 233q0 -61 49.5 -105t122.5 -44q123 0 193 57q29 23 36 43.5t7 67.5v215q-256 -57 -332 -103.5t-76 -130.5zM301 1303 q0 86 59.5 143t145.5 57q90 0 145.5 -54t55.5 -140t-58.5 -143.5t-144.5 -57.5t-144.5 54.5t-58.5 140.5zM385 1307q0 -55 33 -93t86 -38q51 0 86 35.5t35 95.5q0 61 -35 96t-86 35q-49 0 -84 -36t-35 -95z" />
<glyph unicode="&#xe6;" horiz-adv-x="1529" d="M111 231q0 104 77 158q76 55 392 133q59 14 75.5 32.5t16.5 74.5q0 166 -31 217q-45 74 -143 74q-84 0 -146.5 -37t-62.5 -86q0 -47 39 -107l-133 -67q-47 74 -48 120q0 63 80 131q82 68 174.5 106t155.5 38q190 0 231 -172q55 78 146.5 124t183.5 46q342 0 342 -398 l-612 -98q-41 -6 -41 -51q0 -31 2 -45q14 -158 90 -243t244 -85q137 0 289 111l43 -49q-193 -193 -394 -193q-217 0 -340 195q-184 -186 -348 -187q-119 0 -200.5 80t-81.5 178zM262 244q0 -70 52.5 -119t113.5 -49q166 0 285 147q-37 88 -43 256q-252 -57 -330 -105 t-78 -130zM803 582q344 57 438 86q33 10 46 21t13 36q0 90 -52 151.5t-158 61.5q-111 0 -198 -108.5t-89 -247.5z" />
<glyph unicode="&#xe7;" horiz-adv-x="925" d="M96 440q0 268 161 422t361 154q139 0 259 -98l-105 -123q-109 102 -256 102q-119 0 -202 -101.5t-83 -277.5q0 -201 100.5 -310.5t244 -109.5t288.5 107l45 -49q-184 -184 -364 -191l-35 -88q184 -12 184 -158q0 -80 -61.5 -138t-137 -83.5t-155.5 -32.5l-18 82 q246 0 245 134q0 106 -159 106l69 182q-164 20 -272.5 148t-108.5 323z" />
<glyph unicode="&#xe8;" horiz-adv-x="993" d="M96 475q0 233 131 387t322 154q172 0 273.5 -102.5t101.5 -305.5l-686 -2q-6 -31 -7 -63q0 -225 107.5 -335t271.5 -110q135 0 285 109l43 -49q-86 -92 -195.5 -142.5t-201.5 -50.5q-193 0 -319 135t-126 375zM248 678q354 0 454 12q33 4 46.5 13.5t13.5 39.5 q0 80 -60.5 137.5t-169.5 57.5q-111 0 -189.5 -77t-94.5 -183zM270 1475l176 49q72 -141 203 -375l-37 -23q-119 111 -342 349z" />
<glyph unicode="&#xe9;" horiz-adv-x="993" d="M96 475q0 233 131 387t322 154q172 0 273.5 -102.5t101.5 -305.5l-686 -2q-6 -31 -7 -63q0 -225 107.5 -335t271.5 -110q135 0 285 109l43 -49q-86 -92 -195.5 -142.5t-201.5 -50.5q-193 0 -319 135t-126 375zM248 678q354 0 454 12q33 4 46.5 13.5t13.5 39.5 q0 80 -60.5 137.5t-169.5 57.5q-111 0 -189.5 -77t-94.5 -183zM451 1149q117 201 202 375l176 -49q-147 -160 -342 -349z" />
<glyph unicode="&#xea;" horiz-adv-x="993" d="M96 475q0 233 131 387t322 154q172 0 273.5 -102.5t101.5 -305.5l-686 -2q-6 -31 -7 -63q0 -225 107.5 -335t271.5 -110q135 0 285 109l43 -49q-86 -92 -195.5 -142.5t-201.5 -50.5q-193 0 -319 135t-126 375zM248 678q354 0 454 12q33 4 46.5 13.5t13.5 39.5 q0 80 -60.5 137.5t-169.5 57.5q-111 0 -189.5 -77t-94.5 -183zM264 1120q150 195 256 355h62l243 -353l-37 -30l-243 223l-242 -223z" />
<glyph unicode="&#xeb;" horiz-adv-x="993" d="M96 475q0 233 131 387t322 154q172 0 273.5 -102.5t101.5 -305.5l-686 -2q-6 -31 -7 -63q0 -225 107.5 -335t271.5 -110q135 0 285 109l43 -49q-86 -92 -195.5 -142.5t-201.5 -50.5q-193 0 -319 135t-126 375zM248 678q354 0 454 12q33 4 46.5 13.5t13.5 39.5 q0 80 -60.5 137.5t-169.5 57.5q-111 0 -189.5 -77t-94.5 -183zM285 1282q0 41 27.5 68.5t66.5 27.5t64.5 -27.5t25.5 -68.5t-26.5 -68.5t-65.5 -27.5q-37 0 -64.5 27.5t-27.5 68.5zM616 1282q0 41 28 68.5t67 27.5t64.5 -27.5t25.5 -68.5t-26.5 -68.5t-65.5 -27.5 q-37 0 -65 27.5t-28 68.5z" />
<glyph unicode="&#xec;" horiz-adv-x="593" d="M4 1475l176 49q72 -141 203 -375l-37 -23q-119 111 -342 349zM90 -2v63q119 6 139 45q18 37 19 127v377q0 111 -19 158q-12 31 -110 90v27l250 139l18 -12q-6 -121 -6 -389v-385q0 -109 20 -138q20 -31 144 -39v-63q-119 4 -228 4q-104 0 -227 -4z" />
<glyph unicode="&#xed;" horiz-adv-x="593" d="M90 -2v63q119 6 139 45q18 37 19 127v377q0 111 -19 158q-12 31 -110 90v27l250 139l18 -12q-6 -121 -6 -389v-385q0 -109 20 -138q20 -31 144 -39v-63q-119 4 -228 4q-104 0 -227 -4zM211 1149q117 201 203 375l176 -49q-147 -160 -342 -349z" />
<glyph unicode="&#xee;" horiz-adv-x="593" d="M25 1120q150 195 256 355h61l244 -353l-37 -30l-244 223l-242 -223zM90 -2v63q119 6 139 45q18 37 19 127v377q0 111 -19 158q-12 31 -110 90v27l250 139l18 -12q-6 -121 -6 -389v-385q0 -109 20 -138q20 -31 144 -39v-63q-119 4 -228 4q-104 0 -227 -4z" />
<glyph unicode="&#xef;" horiz-adv-x="593" d="M45 1282q0 41 27.5 68.5t66.5 27.5t64.5 -27.5t25.5 -68.5t-26.5 -68.5t-65.5 -27.5q-37 0 -64.5 27.5t-27.5 68.5zM90 -2v63q119 6 139 45q18 37 19 127v377q0 111 -19 158q-12 31 -110 90v27l250 139l18 -12q-6 -121 -6 -389v-385q0 -109 20 -138q20 -31 144 -39v-63 q-119 4 -228 4q-104 0 -227 -4zM377 1282q0 41 27.5 68.5t66.5 27.5t64.5 -27.5t25.5 -68.5t-26.5 -68.5t-65.5 -27.5q-37 0 -64.5 27.5t-27.5 68.5z" />
<glyph unicode="&#xf0;" horiz-adv-x="1181" d="M96 469q0 250 152.5 392.5t365.5 142.5q176 0 277 -117q-57 176 -170 309l-256 -145l-39 69l240 135q-131 125 -293 170l26 76q209 -47 367 -190l176 100l39 -68l-158 -90q129 -139 194.5 -329.5t65.5 -388.5q0 -260 -141 -415t-360 -155q-211 0 -348.5 146.5 t-137.5 357.5zM250 524q0 -199 89 -338t259 -139q156 0 245 110.5t89 297.5q0 213 -93.5 340t-242.5 127q-158 0 -252 -108t-94 -290z" />
<glyph unicode="&#xf1;" horiz-adv-x="1236" d="M90 -2v63q119 6 139 43q18 37 19 129v381q0 106 -19 154q-12 31 -110 90v27l243 139l19 -12v-170q242 168 387 168q125 0 188 -97q35 -51 44.5 -116.5t9.5 -204.5v-336q0 -129 18 -152q25 -33 143 -43v-63q-131 4 -227 4q-76 0 -227 -4v63q106 10 135 41q29 33 29 295 q0 301 -31 389q-39 102 -178 103q-66 0 -141.5 -29t-110.5 -65q-25 -27 -32 -61t-7 -111v-385q0 -109 20 -138q20 -31 144 -39v-63q-119 4 -232 4q-100 0 -223 -4zM328 1157q84 213 178 213q27 0 112 -29l66 -28q55 -25 92 -25q47 0 103 105l45 -21q-90 -213 -170 -213 q-37 0 -121 33l-60 25q-61 25 -88 24q-35 0 -59.5 -23.5t-52.5 -78.5z" />
<glyph unicode="&#xf2;" horiz-adv-x="1181" d="M96 469q0 252 153.5 399.5t364.5 147.5q203 0 337 -145.5t134 -360.5q0 -240 -144 -392.5t-359 -152.5q-211 0 -348.5 146.5t-137.5 357.5zM250 524q0 -197 91 -337t261 -140q156 0 243 109.5t87 298.5q0 213 -97.5 346t-246.5 133q-156 0 -247 -113t-91 -297zM303 1475 l176 49q72 -141 203 -375l-37 -23q-119 111 -342 349z" />
<glyph unicode="&#xf3;" horiz-adv-x="1181" d="M96 469q0 252 153.5 399.5t364.5 147.5q203 0 337 -145.5t134 -360.5q0 -240 -144 -392.5t-359 -152.5q-211 0 -348.5 146.5t-137.5 357.5zM250 524q0 -197 91 -337t261 -140q156 0 243 109.5t87 298.5q0 213 -97.5 346t-246.5 133q-156 0 -247 -113t-91 -297zM487 1149 q117 201 203 375l176 -49q-147 -160 -342 -349z" />
<glyph unicode="&#xf4;" horiz-adv-x="1181" d="M96 469q0 252 153.5 399.5t364.5 147.5q203 0 337 -145.5t134 -360.5q0 -240 -144 -392.5t-359 -152.5q-211 0 -348.5 146.5t-137.5 357.5zM250 524q0 -197 91 -337t261 -140q156 0 243 109.5t87 298.5q0 213 -97.5 346t-246.5 133q-156 0 -247 -113t-91 -297zM311 1120 q150 195 256 355h62l243 -353l-36 -30l-244 223l-242 -223z" />
<glyph unicode="&#xf5;" horiz-adv-x="1181" d="M96 469q0 252 153.5 399.5t364.5 147.5q203 0 337 -145.5t134 -360.5q0 -240 -144 -392.5t-359 -152.5q-211 0 -348.5 146.5t-137.5 357.5zM250 524q0 -197 91 -337t261 -140q156 0 243 109.5t87 298.5q0 213 -97.5 346t-246.5 133q-156 0 -247 -113t-91 -297zM293 1157 q84 213 178 213q27 0 113 -29l65 -28q55 -25 92 -25q47 0 103 105l45 -21q-90 -213 -170 -213q-37 0 -121 33l-59 25q-61 25 -88 24q-35 0 -59.5 -23.5t-53.5 -78.5z" />
<glyph unicode="&#xf6;" horiz-adv-x="1181" d="M96 469q0 252 153.5 399.5t364.5 147.5q203 0 337 -145.5t134 -360.5q0 -240 -144 -392.5t-359 -152.5q-211 0 -348.5 146.5t-137.5 357.5zM250 524q0 -197 91 -337t261 -140q156 0 243 109.5t87 298.5q0 213 -97.5 346t-246.5 133q-156 0 -247 -113t-91 -297zM328 1282 q0 41 27.5 68.5t66.5 27.5t64.5 -27.5t25.5 -68.5t-26.5 -68.5t-65.5 -27.5q-37 0 -64.5 27.5t-27.5 68.5zM659 1282q0 41 28 68.5t67 27.5t64.5 -27.5t25.5 -68.5t-26.5 -68.5t-65.5 -27.5q-37 0 -65 27.5t-28 68.5z" />
<glyph unicode="&#xf7;" horiz-adv-x="1497" d="M193 569v119h1112v-119h-1112zM651 276q0 41 29 69t67.5 28t67.5 -28t29 -69q0 -43 -29 -70.5t-67.5 -27.5t-67.5 27.5t-29 70.5zM651 979q0 41 29 68.5t67.5 27.5t67.5 -27.5t29 -68.5q0 -43 -29 -70.5t-67.5 -27.5t-67.5 27.5t-29 70.5z" />
<glyph unicode="&#xf8;" horiz-adv-x="1181" d="M96 469q0 252 153.5 399.5t364.5 147.5q127 0 236 -66l111 162l67 -43l-113 -164q170 -150 170 -395q0 -240 -144 -392.5t-359 -152.5q-143 0 -258 72l-107 -154l-67 39l110 164q-164 147 -164 383zM250 524q0 -201 84 -331l452 665q-86 76 -190 76q-156 0 -251 -113 t-95 -297zM385 129q86 -82 213 -82q156 0 245 110.5t89 297.5q0 211 -90 342z" />
<glyph unicode="&#xf9;" horiz-adv-x="1198" d="M49 891v65q195 16 307 37q-16 -246 -16 -514q0 -231 54.5 -312t176.5 -81q68 0 140.5 33t105.5 82q29 35 29 153v394q0 94 -31 117.5t-139 25.5v65q201 18 311 39q-8 -197 -8 -262v-471q0 -115 20 -137q18 -23 140 -23v-53l-277 -88l-18 14v154q-190 -158 -359 -158 q-279 0 -278 365v414q0 84 -31 110.5t-127 30.5zM307 1475l176 49q72 -141 203 -375l-37 -23q-119 111 -342 349z" />
<glyph unicode="&#xfa;" horiz-adv-x="1198" d="M49 891v65q195 16 307 37q-16 -246 -16 -514q0 -231 54.5 -312t176.5 -81q68 0 140.5 33t105.5 82q29 35 29 153v394q0 94 -31 117.5t-139 25.5v65q201 18 311 39q-8 -197 -8 -262v-471q0 -115 20 -137q18 -23 140 -23v-53l-277 -88l-18 14v154q-190 -158 -359 -158 q-279 0 -278 365v414q0 84 -31 110.5t-127 30.5zM492 1149q117 201 202 375l176 -49q-147 -160 -342 -349z" />
<glyph unicode="&#xfb;" horiz-adv-x="1198" d="M49 891v65q195 16 307 37q-16 -246 -16 -514q0 -231 54.5 -312t176.5 -81q68 0 140.5 33t105.5 82q29 35 29 153v394q0 94 -31 117.5t-139 25.5v65q201 18 311 39q-8 -197 -8 -262v-471q0 -115 20 -137q18 -23 140 -23v-53l-277 -88l-18 14v154q-190 -158 -359 -158 q-279 0 -278 365v414q0 84 -31 110.5t-127 30.5zM317 1120q150 195 256 355h62l244 -353l-37 -30l-244 223l-242 -223z" />
<glyph unicode="&#xfc;" horiz-adv-x="1198" d="M49 891v65q195 16 307 37q-16 -246 -16 -514q0 -231 54.5 -312t176.5 -81q68 0 140.5 33t105.5 82q29 35 29 153v394q0 94 -31 117.5t-139 25.5v65q201 18 311 39q-8 -197 -8 -262v-471q0 -115 20 -137q18 -23 140 -23v-53l-277 -88l-18 14v154q-190 -158 -359 -158 q-279 0 -278 365v414q0 84 -31 110.5t-127 30.5zM340 1282q0 41 27.5 68.5t66.5 27.5t64.5 -27.5t25.5 -68.5t-26.5 -68.5t-65.5 -27.5q-37 0 -64.5 27.5t-27.5 68.5zM672 1282q0 41 27.5 68.5t66.5 27.5t64.5 -27.5t25.5 -68.5t-26.5 -68.5t-65.5 -27.5q-37 0 -64.5 27.5 t-27.5 68.5z" />
<glyph unicode="&#xfd;" horiz-adv-x="1077" d="M20 918v63q53 -4 232 -4q102 0 205 4v-63q-84 -2 -112 -15.5t-28 -46.5q0 -23 37 -119l232 -565q158 420 200 569q20 74 21 113q0 31 -27.5 46t-115.5 18v63q131 -4 208 -4q127 0 199 4v-63q-63 -6 -100 -31t-62 -90l-74 -201l-110 -297l-92 -240q-82 -205 -171 -347 t-220 -238l-88 118q246 123 358 416l-307 721q-51 121 -80 154t-105 35zM494 1149q117 201 202 375l176 -49q-147 -160 -342 -349z" />
<glyph unicode="&#xfe;" horiz-adv-x="1200" d="M78 -438q84 6 108.5 18t33.5 43t9 111v1505q0 106 -26 139q-20 25 -101 72v31l256 149l19 -12q-14 -258 -15 -463v-307q199 162 343 162q166 0 285.5 -133.5t119.5 -335.5q0 -242 -154.5 -399.5t-386.5 -157.5q-102 0 -209 34v-276q0 -94 25 -137q18 -33 160 -43v-64 q-72 4 -242 4q-98 0 -225 -4v64zM362 344q0 -82 6.5 -119t34.5 -73q63 -80 209 -80q158 0 254.5 107.5t96.5 297.5q0 186 -93.5 299t-238.5 113q-80 0 -143.5 -29t-94.5 -72q-31 -41 -31 -110v-334z" />
<glyph unicode="&#xff;" horiz-adv-x="1077" d="M20 918v63q53 -4 232 -4q102 0 205 4v-63q-84 -2 -112 -15.5t-28 -46.5q0 -23 37 -119l232 -565q158 420 200 569q20 74 21 113q0 31 -27.5 46t-115.5 18v63q131 -4 208 -4q127 0 199 4v-63q-63 -6 -100 -31t-62 -90l-74 -201l-110 -297l-92 -240q-82 -205 -171 -347 t-220 -238l-88 118q246 123 358 416l-307 721q-51 121 -80 154t-105 35zM305 1282q0 41 27.5 68.5t66.5 27.5t64.5 -27.5t25.5 -68.5t-26.5 -68.5t-65.5 -27.5q-37 0 -64.5 27.5t-27.5 68.5zM637 1282q0 41 27.5 68.5t66.5 27.5t64.5 -27.5t25.5 -68.5t-26.5 -68.5 t-65.5 -27.5q-37 0 -64.5 27.5t-27.5 68.5z" />
<glyph unicode="&#x152;" horiz-adv-x="2050" d="M119 694q0 319 201.5 540.5t539.5 221.5q51 0 189.5 -7t187.5 -7q377 0 635 6q12 -215 24 -299l-69 -8q-31 137 -90 186q-33 27 -76 36t-145 9q-199 0 -259 -4v-573q236 0 285 18q61 23 88 172h68q-10 -215 -10 -248q0 -131 4 -213h-68q-18 141 -80 170q-51 25 -287 25 v-465q0 -80 17 -109q37 -68 293 -67q199 0 268 96q45 63 88 170l66 -16q-37 -154 -93 -330q-336 4 -686 4q-39 0 -174 -7t-225 -7q-338 0 -515 191t-177 515zM295 714.5q0 -284.5 129 -463.5t395 -179q233 0 264 75q16 37 21 129v873q0 123 -31 160q-53 63 -231 63 q-264 0 -405.5 -186.5t-141.5 -471z" />
<glyph unicode="&#x153;" horiz-adv-x="1822" d="M96 469q0 248 155 397.5t363 149.5q133 0 235.5 -65.5t160.5 -178.5q61 115 159.5 179.5t216.5 64.5q164 0 261.5 -102.5t97.5 -305.5l-672 -2q-4 -20 -4 -63q0 -225 104.5 -335t268.5 -110q133 0 282 109l43 -49q-193 -193 -387 -193q-129 0 -229 61.5t-158 178.5 q-63 -113 -170.5 -176.5t-240.5 -63.5q-211 0 -348.5 146.5t-137.5 357.5zM250 524q0 -193 91 -335t261 -142q152 0 241 111.5t89 296.5q0 215 -94.5 347t-251.5 132q-145 0 -240.5 -117t-95.5 -293zM1085 678q336 0 439 12q33 4 46 13.5t13 39.5q0 78 -62.5 136.5 t-160.5 58.5q-102 0 -177 -75.5t-98 -184.5z" />
<glyph unicode="&#x178;" horiz-adv-x="1316" d="M14 1382v66q98 -6 256 -6q141 0 258 6v-66q-90 -4 -121.5 -14t-31.5 -39q0 -33 45 -117l149 -275l125 -224l256 440q63 113 64 176q0 51 -148 53v66q74 -6 215 -6q94 0 230 6v-66q-66 -6 -112 -46t-122 -165l-340 -550v-377q0 -106 21 -135q27 -37 172 -46v-65 q-160 6 -273 6q-49 0 -264 -6v65q147 6 172 50q18 37 19 127v368l-348 611q-59 100 -100.5 128.5t-121.5 34.5zM432 1692q0 41 27.5 68.5t66.5 27.5t64.5 -27.5t25.5 -68.5t-26.5 -69t-65.5 -28q-37 0 -64.5 28t-27.5 69zM805 1692q0 41 27.5 68.5t66.5 27.5t64.5 -27.5 t25.5 -68.5t-26.5 -69t-65.5 -28q-37 0 -64.5 28t-27.5 69z" />
<glyph unicode="&#x2c6;" horiz-adv-x="598" d="M18 1120q150 195 256 355h62l244 -353l-37 -30l-244 223l-242 -223z" />
<glyph unicode="&#x2dc;" horiz-adv-x="598" d="M2 1157q84 213 178 213q27 0 113 -29l65 -28q55 -25 93 -25q47 0 102 105l45 -21q-90 -213 -170 -213q-37 0 -121 33l-59 25q-61 25 -88 24q-35 0 -59.5 -23.5t-53.5 -78.5z" />
<glyph unicode="&#x2013;" horiz-adv-x="1097" d="M76 485v121h946v-121h-946z" />
<glyph unicode="&#x2014;" horiz-adv-x="1593" d="M76 485v121h1442v-121h-1442z" />
<glyph unicode="&#x2018;" horiz-adv-x="407" d="M74 1184q0 176 231 372l51 -45q-141 -139 -141 -270q0 -74 104 -172l-133 -106q-112 112 -112 221z" />
<glyph unicode="&#x2019;" horiz-adv-x="407" d="M51 995q141 139 142 271q0 74 -105 172l133 106q113 -113 113 -221q0 -176 -232 -373z" />
<glyph unicode="&#x201a;" horiz-adv-x="407" d="M51 -344q141 139 142 270q0 74 -105 172l133 107q113 -113 113 -221q0 -176 -232 -373z" />
<glyph unicode="&#x201c;" horiz-adv-x="737" d="M74 1184q0 176 231 372l51 -45q-141 -139 -141 -270q0 -74 104 -172l-133 -106q-112 112 -112 221zM403 1184q0 176 232 372l51 -45q-141 -139 -141 -270q0 -74 104 -172l-133 -106q-113 112 -113 221z" />
<glyph unicode="&#x201d;" horiz-adv-x="737" d="M51 995q141 139 142 271q0 74 -105 172l133 106q113 -113 113 -221q0 -176 -232 -373zM381 995q141 139 141 271q0 74 -104 172l133 106q113 -113 113 -221q0 -176 -232 -373z" />
<glyph unicode="&#x201e;" horiz-adv-x="737" d="M51 -344q141 139 142 270q0 74 -105 172l133 107q113 -113 113 -221q0 -176 -232 -373zM381 -344q141 139 141 270q0 74 -104 172l133 107q113 -113 113 -221q0 -176 -232 -373z" />
<glyph unicode="&#x2022;" horiz-adv-x="686" d="M106 565q0 102 68 171t170 69t169 -68.5t67 -171.5q0 -106 -67 -173.5t-169 -67.5t-170 67.5t-68 173.5z" />
<glyph unicode="&#x2026;" horiz-adv-x="1986" d="M217 102.5q0 51.5 34 84t83 32.5t80.5 -33.5t31.5 -85.5q0 -49 -32.5 -82.5t-81.5 -33.5q-47 0 -81 33.5t-34 85zM883 102.5q0 51.5 33.5 84t83 32.5t81 -33.5t31.5 -85.5q0 -49 -32.5 -82.5t-82.5 -33.5q-47 0 -80.5 33.5t-33.5 85zM1540 102.5q0 51.5 34 84t83 32.5 t80.5 -33.5t31.5 -85.5q0 -49 -32.5 -82.5t-81.5 -33.5q-47 0 -81 33.5t-34 85z" />
<glyph unicode="&#x2039;" horiz-adv-x="526" d="M66 481v45q176 152 370 338l37 -30l-252 -326l252 -342l-39 -33z" />
<glyph unicode="&#x203a;" horiz-adv-x="526" d="M53 831l39 33l369 -348v-45q-176 -152 -371 -338l-37 31l252 325z" />
<glyph unicode="&#x20ac;" horiz-adv-x="1310" d="M133 549v82h168q0 94 4 164h-172v82h182q39 240 176.5 378t356.5 138q129 0 235 -33q70 -20 105 -33q2 -14 8 -104t10 -142l-65 -8q-31 141 -100.5 188.5t-200.5 47.5q-152 0 -247 -111t-122 -321h516v-82h-524q-2 -31 -2 -164h526v-82h-520q25 -238 124 -365t265 -127 q121 0 192.5 61.5t108.5 198.5l66 -12q-27 -174 -54 -260q-102 -72 -333 -72q-246 0 -375 151.5t-154 424.5h-174z" />
<glyph unicode="&#x2122;" horiz-adv-x="1550" d="M35 1294q16 78 20 174h33q6 -12 12 -16q16 -10 234 -10q219 0 239 6q16 4 23 20l35 -2q-8 -51 -13 -174h-34q-6 78 -49 92q-25 8 -99 9q-31 0 -51 -2v-437q0 -49 10 -63q10 -16 88 -23v-37q-31 2 -143 3q-123 0 -154 -3v37q70 2 86 23q8 16 9 61v439q-25 2 -58 2 q-86 0 -108 -19q-25 -23 -45 -86zM686 831v37q47 4 64.5 17.5t21.5 60.5q4 45 11.5 146.5t13.5 175t6 84.5q0 31 -19.5 41t-66.5 14v41q29 -2 108 -2q53 0 84 2q14 -63 41 -131l133 -340l168 381q20 45 31 90q23 -2 109 -2q51 0 84 2v-41q-49 0 -65.5 -15.5t-16.5 -64.5 q0 -39 14 -379q2 -51 14.5 -63.5t67.5 -16.5v-36q-27 2 -148 2q-27 0 -66.5 -1t-49.5 -1v36q51 4 66.5 17.5t15.5 62.5q0 18 -2 65.5t-5 131.5l-4 170l-161 -365q-33 -80 -45 -119h-60q-18 72 -35 109l-149 381q-2 -61 -9.5 -194.5t-7.5 -184.5q0 -45 16.5 -57.5t72.5 -16.5 v-37q-43 2 -121 3q-23 0 -61 -1.5t-50 -1.5z" />
<glyph unicode="&#xe000;" horiz-adv-x="980" d="M0 980h980v-980h-980v980z" />
<glyph unicode="&#xfb01;" horiz-adv-x="1204" d="M92 -2v63q90 6 114.5 18.5t34 44.5t9.5 112v632h-141v54q82 20 116 79q27 43 39 144q18 135 62.5 223t132.5 160q117 98 252 98q154 0 258 -74l-103 -153q-111 104 -252 104q-37 0 -79.5 -20.5t-69.5 -52.5q-78 -94 -78 -316v-156h240q242 0 352 56l18 -13 q-6 -121 -6 -378v-385q0 -109 21 -138q20 -31 143 -39v-63q-119 4 -227 4q-104 0 -228 -4v63q119 6 140 45q18 37 18 127v377q0 145 -18 195q-25 63 -205 63h-250v-624q0 -111 21 -140q27 -35 159 -43v-63q-72 4 -233 4q-113 0 -240 -4z" />
<glyph unicode="&#xfb02;" horiz-adv-x="1222" d="M92 -2v63q90 6 114.5 18.5t34 44.5t9.5 112v632h-141v54q82 20 116 79q27 45 39 144q16 137 59.5 224t129.5 159q117 98 243 98q109 0 203 -47l86 51l19 -12q-12 -221 -13 -463v-917q0 -109 21 -138q23 -33 143 -39v-63q-119 4 -231 4q-102 0 -226 -4v63q119 6 140 43 q18 37 18 129v1063q0 102 -31 134q-80 78 -219 77q-43 0 -85 -22.5t-66 -54.5q-68 -96 -68 -316v-156h254v-90h-256v-624q0 -111 21 -140q27 -35 159 -43v-63q-72 4 -233 4q-113 0 -240 -4z" />
<glyph unicode="&#xfb03;" horiz-adv-x="1810" d="M92 -2v63q90 6 114.5 18.5t34 44.5t9.5 112v632h-141v54q82 20 116 79q18 31 39 136q27 137 65 215t120 139q115 86 251 86q104 0 201 -55l-84 -146q-94 78 -213 78q-100 0 -147 -65q-70 -100 -70 -322v-109h234q180 0 215 48q23 31 34 139q14 133 60.5 221t134.5 162 q117 98 252 98q154 0 254 -76l-98 -151q-113 104 -250 104q-94 0 -154 -73q-76 -94 -76 -316v-156h240q242 0 352 56l19 -13q-6 -121 -7 -378v-385q0 -109 21 -138q20 -31 143 -39v-63q-119 4 -227 4q-104 0 -227 -4v63q119 6 139 45q18 37 18 127v377q0 145 -18 195 q-25 63 -205 63h-250v-624q0 -111 21 -140q27 -35 159 -43v-63q-72 4 -233 4q-113 0 -240 -4v63q90 6 115 18.5t34 44.5t9 112v632h-471v-624q0 -111 21 -140q27 -35 159 -43v-63q-72 4 -233 4q-113 0 -240 -4z" />
<glyph unicode="&#xfb04;" horiz-adv-x="1828" d="M92 -2v63q90 6 114.5 18.5t34 44.5t9.5 112v632h-141v54q82 20 116 79q18 31 39 136q27 137 65 215t120 139q115 86 251 86q104 0 201 -55l-84 -148q-92 80 -219 80q-94 0 -141 -65q-70 -100 -70 -322v-109h234q98 0 146 10.5t69 39.5q20 31 34 137q16 137 59.5 224 t129.5 159q117 98 244 98q109 0 202 -47l86 51l19 -12q-12 -221 -13 -463v-917q0 -109 21 -138q23 -33 143 -39v-63q-119 4 -231 4q-102 0 -225 -4v63q119 6 139 43q18 37 18 129v1057q0 113 -26 140q-78 78 -224 77q-43 0 -85 -22.5t-66 -54.5q-68 -96 -68 -316v-156h254 v-90h-256v-624q0 -111 21 -140q27 -35 159 -43v-63q-72 4 -233 4q-113 0 -240 -4v63q90 6 115 18.5t34 44.5t9 112v632h-471v-624q1 -111 21 -140q27 -35 159 -43v-63q-72 4 -233 4q-113 0 -240 -4z" />
</font>
</defs>
</svg>
